<svg width="449" height="324" viewBox="0 0 449 324" fill="none" xmlns="http://www.w3.org/2000/svg">
    <rect width="448" height="324" transform="translate(0.335449)" fill="white"/>
    <mask id="mask0_1039_2041" style="mask-type:alpha" maskUnits="userSpaceOnUse" x="127" y="107" width="214" height="184">
    <path d="M209.366 287.034H137.32C136.156 287.034 135.191 286.172 135.106 285.011C134.331 274.415 130.805 224.76 130.805 198.02C130.805 171.406 134.298 125.579 135.095 115.463C135.186 114.307 136.148 113.448 137.307 113.448H186.441C187.671 113.448 188.667 114.446 188.667 115.675V124.068C188.667 125.989 190.916 126.994 192.353 125.72C202.304 116.899 217.145 105.824 247.641 113.449C282.136 122.073 316.63 161.295 331.096 188.001C344.242 212.272 331.655 274.223 329.25 285.319C329.031 286.332 328.136 287.034 327.1 287.034H255.949C254.978 287.034 254.12 286.401 253.813 285.48C247.054 265.233 235.814 252.076 252.092 233.627C277.675 204.633 262.107 179.104 252.092 172.427C242.078 165.751 214.26 160.187 197.569 170.202C180.878 180.217 184.216 216.888 202.02 226.951C224.899 239.883 213.985 277.711 211.414 285.587C211.124 286.475 210.3 287.034 209.366 287.034Z" fill="url(#paint0_linear_1039_2041)" stroke="black" stroke-width="6.67636"/>
    </mask>
    <g mask="url(#mask0_1039_2041)">
    <path d="M209.366 287.034H137.32C136.156 287.034 135.191 286.172 135.106 285.011C134.331 274.415 130.805 224.76 130.805 198.02C130.805 171.406 134.298 125.579 135.095 115.463C135.186 114.307 136.148 113.448 137.307 113.448H186.441C187.671 113.448 188.667 114.446 188.667 115.675V124.068C188.667 125.989 190.916 126.994 192.353 125.72C202.304 116.899 217.145 105.824 247.641 113.449C282.136 122.073 316.63 161.295 331.096 188.001C344.242 212.272 331.655 274.223 329.25 285.319C329.031 286.332 328.136 287.034 327.1 287.034H255.949C254.978 287.034 254.12 286.401 253.813 285.48C247.054 265.233 235.814 252.076 252.092 233.627C277.675 204.633 262.107 179.104 252.092 172.427C242.078 165.751 214.26 160.187 197.569 170.202C180.878 180.217 184.216 216.888 202.02 226.951C224.899 239.883 213.985 277.711 211.414 285.587C211.124 286.475 210.3 287.034 209.366 287.034Z" fill="url(#paint1_linear_1039_2041)" stroke="black" stroke-width="6.67636"/>
    <g style="mix-blend-mode:hard-light" opacity="0.5">
    <path fill-rule="evenodd" clip-rule="evenodd" d="M222.685 121.766L222.685 121.766C220.856 115.755 219.023 109.733 218.106 103.569L218.108 103.577C217.963 102.611 219.346 102.127 219.88 102.913C225.425 111.05 228.271 121.157 230.72 130.717C232.282 128.462 236.734 128.692 238.134 131.639C244.097 144.18 248.534 157.484 252.142 170.889C252.657 172.807 253.214 174.76 253.779 176.74L253.779 176.741C256.84 187.484 260.123 199 258.298 209.741C257.944 211.829 254.825 212.831 253.623 210.838C248.855 202.931 246.833 193.474 244.846 184.176L244.846 184.176C244.066 180.526 243.291 176.902 242.358 173.405C241.234 169.193 240.08 164.99 238.88 160.802C238.451 162.99 237.841 165.127 237.001 167.189C235.908 169.88 231.845 169.068 231.562 166.3C230.423 155.084 228.544 144.01 225.887 133.056C224.97 129.275 223.829 125.523 222.686 121.767L222.686 121.767L222.686 121.767L222.686 121.767L222.686 121.767L222.686 121.767L222.685 121.766ZM175.329 125.396L175.231 126.183C175.109 127.165 175.421 128.259 176.256 128.868C178.289 130.348 180.448 131.664 182.606 132.98C185.017 134.451 187.427 135.92 189.658 137.615C194.473 141.272 196.21 146.969 197.915 152.561C198.226 153.583 198.536 154.601 198.864 155.602C199.979 159.012 201.028 162.499 202.083 166.007C204.759 174.907 207.474 183.937 211.414 192.158C212.522 194.467 215.832 193.787 215.782 191.16C215.665 185.317 214.362 179.486 213.074 173.727L213.074 173.727L213.073 173.723C212.662 171.885 212.253 170.054 211.884 168.233C210.511 161.459 208.195 154.576 205.794 148.095C200.961 135.058 191.055 129.846 179.213 124.034C178.303 123.588 177.196 123.772 176.384 124.327C176.317 124.372 176.244 124.417 176.168 124.464L176.168 124.464C175.808 124.688 175.385 124.952 175.329 125.396ZM122.685 122.526C124.904 125.939 128.125 128.775 131.317 131.587C133.228 133.27 135.129 134.944 136.799 136.727C141.774 142.039 146.324 147.732 150.582 153.629C154.017 158.385 157.277 163.255 160.43 168.195C156.999 164.891 153.503 161.654 149.937 158.492C148.816 157.499 147.681 156.464 146.528 155.412C139.383 148.899 131.533 141.742 122.118 139.807C120.436 139.463 118.606 141.087 118.89 142.825C119.621 147.312 121.318 150.258 125.216 152.617C126.598 153.453 127.58 151.524 126.98 150.446C126.344 149.307 125.822 148.178 125.418 147.021C132.325 150.339 138.386 155.811 144.105 160.973L144.106 160.974L144.109 160.977C145.149 161.916 146.179 162.845 147.2 163.749C156.363 171.86 165.077 180.449 173.363 189.451L173.37 189.463L173.373 189.461C175.792 192.083 179.801 189.335 177.922 186.186L177.746 185.892C170.171 173.209 162.568 160.481 153.597 148.716C149.649 143.54 145.451 138.561 140.951 133.852C140.402 133.278 139.843 132.682 139.271 132.074L139.269 132.072L139.269 132.072L139.268 132.071L139.268 132.07L139.267 132.069L139.265 132.067L139.265 132.067C135.018 127.545 130.125 122.336 124.4 120.413C123.094 119.974 121.891 121.296 122.686 122.519L122.685 122.526ZM202.446 205.241C197.264 204.604 191.366 207.59 186.115 210.249C184.33 211.153 182.621 212.019 181.039 212.692C179.59 213.308 178.137 213.918 176.684 214.529C170.032 217.324 163.365 220.125 156.984 223.495C151.047 226.629 146.386 230.714 148.724 237.927C151.807 247.442 150.662 253.49 146.149 262.338C145.377 263.85 146.805 265.723 148.481 264.884C154.432 261.905 157.753 255.262 158.405 248.839C158.716 245.791 158.486 242.614 157.686 239.657C157.519 239.038 157.284 238.443 157.052 237.859C156.339 236.056 155.665 234.35 157.151 232.317C157.782 231.455 159.419 230.727 160.732 230.143L160.732 230.143L160.733 230.142L160.734 230.142L160.736 230.141L160.737 230.141C161.209 229.93 161.64 229.739 161.965 229.567C168.068 226.355 174.296 223.38 180.519 220.407C181.715 219.835 182.911 219.264 184.106 218.691C185.346 218.096 186.757 217.499 188.244 216.871C193.922 214.47 200.693 211.607 203.167 206.615C203.476 205.99 203.156 205.332 202.446 205.245L202.446 205.241ZM330.267 292.514C331.059 295.329 331.895 298.298 329.864 300.655C329.563 301.007 329.129 301.087 328.704 300.937C325.154 299.693 323.459 294.262 322.078 289.835C321.605 288.32 321.168 286.922 320.707 285.851C317.802 279.109 314.727 272.327 311.033 265.976C310.804 265.583 310.563 265.137 310.311 264.671L310.311 264.67L310.31 264.669C309.593 263.344 308.784 261.848 307.895 260.899C307.527 260.505 307.307 260.153 307.152 259.907L307.152 259.907C306.808 259.358 306.794 259.335 306.216 260.544C305.521 261.994 305.897 264.58 306.208 266.712C306.324 267.511 306.431 268.246 306.469 268.833C306.808 274.067 306.559 278.678 304.566 283.567C303.6 285.942 299.921 287.098 297.957 285.166C291.861 279.162 286.353 272.786 281.165 265.985C280.81 265.52 280.447 265.047 280.079 264.567C275.682 258.838 270.496 252.081 269.039 245.167C268.297 241.639 273.07 239.722 275.542 241.671C279.625 244.894 282.821 249.887 285.857 254.63C287.061 256.513 288.241 258.356 289.441 260.034C292.34 264.088 295.365 268.06 298.424 272.004C298.39 270.319 298.218 268.598 298.045 266.874C297.703 263.465 297.359 260.046 298.086 256.881C299.793 249.437 307.081 246.872 312.451 252.575C318.394 258.886 322.48 269.239 325.517 277.263C327.254 281.852 328.698 286.568 329.937 291.313C330.041 291.709 330.154 292.11 330.267 292.514ZM351.031 213.486C348.624 212.232 345.442 212.743 342.504 213.216C341.397 213.393 340.325 213.566 339.343 213.636C333.772 214.036 328.164 213.862 322.588 213.689L322.588 213.689L322.405 213.683C322.267 213.679 322.128 213.675 321.989 213.671L321.729 213.663L321.391 213.653C316.323 213.503 311.265 213.353 306.348 211.951C304.768 211.5 303.054 210.889 301.458 210.104C304.22 208.138 306.58 205.46 308.501 202.37C312.729 195.57 316.079 184.489 306.545 180.245C300.27 177.451 294.705 179.837 289.09 182.244L289.09 182.244L289.089 182.244L289.089 182.244C287.104 183.095 285.114 183.949 283.083 184.577C275.873 186.808 271.428 181.727 267.019 176.686C265.134 174.53 263.255 172.383 261.17 170.817C259.833 169.816 257.834 170.811 257.987 172.529C259.075 184.582 269.54 193.784 281.387 194.004C286.738 194.104 292.6 193.147 297.923 192.279L298.626 192.164L298.888 192.121C298.99 192.105 299.085 192.07 299.172 192.025C299.074 192.164 298.961 192.332 298.833 192.534C298.421 193.18 298.103 193.842 297.786 194.502L297.785 194.503C297.384 195.338 296.984 196.171 296.396 196.967C294.378 199.694 292.267 201.09 288.831 201.074C283.216 201.046 281.486 209.004 285.5 212.17C289.892 215.639 296.676 217.572 302.09 219.114L302.346 219.187C308.365 220.905 314.27 221.17 320.487 221.155C320.92 221.153 321.352 221.153 321.785 221.152L321.79 221.152C327.552 221.141 333.321 221.129 339.049 220.376C339.334 220.339 339.632 220.301 339.94 220.263C344.042 219.749 349.985 219.004 351.574 214.899C351.792 214.339 351.566 213.772 351.033 213.494L351.031 213.486ZM368.414 161.843C379.843 147.685 393.731 176.182 396.349 184.493L396.357 184.491C397.338 187.602 393.279 189.855 391.277 187.194C389.678 185.066 388.263 182.533 386.826 179.96C384.513 175.818 382.144 171.576 378.86 168.767C374.884 165.368 373.712 169.002 372.626 172.368C372.298 173.385 371.978 174.378 371.59 175.145C370.185 177.93 368.068 180.381 365.038 181.307C359.76 182.918 355.177 179.073 351.109 175.659C350.087 174.802 349.098 173.971 348.138 173.262C341.718 168.519 334.802 164.614 327.504 161.438C324.363 160.07 325.387 155.646 328.526 155.172C337.337 153.841 344.772 157.748 351.747 162.887C352.99 163.803 354.235 165.008 355.503 166.235C357.479 168.147 359.511 170.113 361.679 171.127C362.851 172.744 363.884 172.405 364.779 170.111C365.18 168.986 365.549 167.855 365.885 166.709C366.545 164.986 367.242 163.292 368.414 161.843ZM307.64 132.343C306.713 132.94 305.858 133.57 305.013 134.193C303.351 135.416 301.73 136.611 299.678 137.47C296.58 138.767 293.27 139.671 290.024 140.557C289.7 140.646 289.377 140.734 289.054 140.822C287.724 141.188 286.356 141.531 284.972 141.879C278.944 143.392 272.613 144.981 267.782 148.79C266.512 149.792 266.457 152.141 268.192 152.763C277.406 156.059 288.119 152.323 296.865 149.089C302.987 146.827 313.328 142.318 311.544 134.123C311.144 132.279 309.338 131.254 307.642 132.351L307.64 132.343ZM212.007 213.919C214.574 208.184 217.146 202.439 220.501 197.188L220.498 197.195C221.023 196.371 222.384 196.914 222.27 197.858C221.109 207.636 216.619 217.127 212.189 225.945C214.848 225.271 218.055 228.367 217.176 231.51C213.439 244.883 208.05 257.831 201.968 270.31C201.098 272.096 200.235 273.935 199.361 275.799C194.616 285.912 189.529 296.753 181.101 303.655C179.463 304.998 176.453 303.705 176.855 301.414C178.45 292.319 183.135 283.859 187.741 275.542C189.549 272.277 191.345 269.034 192.937 265.783C194.855 261.868 196.745 257.941 198.59 253.995C196.829 255.363 194.965 256.574 192.979 257.578C190.387 258.89 187.856 255.61 189.46 253.336C195.966 244.129 201.82 234.543 207.009 224.536C208.8 221.083 210.402 217.503 212.007 213.919Z" fill="black"/>
    </g>
    <path d="M293.349 159.658C287.358 152.464 280.409 145.62 271.985 140.196C263.01 134.423 252.524 129.969 240.475 127.135C227.604 124.107 221.097 127.675 205.358 129.027C204.182 129.129 204.062 125.9 205.358 125.689C216.485 121.238 227.893 118.814 240.475 121.168C253.511 123.608 264.617 128.185 274.119 134.105C283.473 139.932 291.76 146.572 298.455 154.374C318.257 177.452 306.616 181.659 305.503 181.659C305.432 181.659 295.772 162.568 293.349 159.658Z" fill="white"/>
    </g>
    <g clip-path="url(#clip0_1039_2041)">
    <path d="M444.779 85.8926C444.779 101.371 432.231 113.919 416.752 113.919C401.273 113.919 388.725 101.371 388.725 85.8926C388.725 70.4138 401.273 57.8658 416.752 57.8658C432.231 57.8658 444.779 70.4138 444.779 85.8926Z" fill="#000A16" stroke="#527B0B" stroke-width="7.00671"/>
    <mask id="mask1_1039_2041" style="mask-type:alpha" maskUnits="userSpaceOnUse" x="401" y="71" width="33" height="28">
    <path d="M413.936 98.0463H403.6C403.392 98.0463 403.219 97.8866 403.203 97.6788C403.081 95.9964 402.584 88.9473 402.584 85.1244C402.584 81.3208 403.076 74.814 403.202 73.2118C403.218 73.0049 403.39 72.8473 403.598 72.8473H410.586C410.806 72.8473 410.984 73.0257 410.984 73.2458V74.2215C410.984 74.5652 411.386 74.744 411.645 74.518C413.089 73.2584 415.245 71.7722 419.545 72.8473C424.553 74.0993 429.56 79.7931 431.66 83.6699C433.548 87.1544 431.781 95.9889 431.404 97.7414C431.365 97.9228 431.206 98.0463 431.02 98.0463H420.806C420.633 98.0463 420.479 97.9334 420.424 97.7687C419.441 94.8589 417.842 92.9557 420.191 90.2934C423.905 86.0844 421.645 82.3784 420.191 81.4092C418.738 80.44 414.699 79.6323 412.276 81.0861C409.853 82.5399 410.338 87.8634 412.923 89.3242C416.197 91.1748 414.704 96.5376 414.303 97.7849C414.252 97.9441 414.104 98.0463 413.936 98.0463Z" fill="white" stroke="black" stroke-width="1.19515"/>
    </mask>
    <g mask="url(#mask1_1039_2041)">
    <path d="M413.936 98.0463H403.6C403.392 98.0463 403.219 97.8866 403.203 97.6788C403.081 95.9964 402.584 88.9473 402.584 85.1244C402.584 81.3208 403.076 74.814 403.202 73.2118C403.218 73.0049 403.39 72.8473 403.598 72.8473H410.586C410.806 72.8473 410.984 73.0257 410.984 73.2458V74.2215C410.984 74.5652 411.386 74.744 411.645 74.518C413.089 73.2584 415.245 71.7722 419.545 72.8473C424.553 74.0993 429.56 79.7931 431.66 83.6699C433.548 87.1544 431.781 95.9889 431.404 97.7414C431.365 97.9228 431.206 98.0463 431.02 98.0463H420.806C420.633 98.0463 420.479 97.9334 420.424 97.7687C419.441 94.8589 417.842 92.9557 420.191 90.2934C423.905 86.0844 421.645 82.3784 420.191 81.4092C418.738 80.44 414.699 79.6323 412.276 81.0861C409.853 82.5399 410.338 87.8634 412.923 89.3242C416.197 91.1748 414.704 96.5376 414.303 97.7849C414.252 97.9441 414.104 98.0463 413.936 98.0463Z" fill="white" stroke="black" stroke-width="1.19515"/>
    </g>
    </g>
    <g clip-path="url(#clip1_1039_2041)">
    <path d="M67.2618 63.0604C67.2618 74.8029 57.7426 84.3221 46 84.3221C34.2575 84.3221 24.7383 74.8029 24.7383 63.0604C24.7383 51.3179 34.2575 41.7986 46 41.7986C57.7426 41.7986 67.2618 51.3179 67.2618 63.0604Z" fill="#000A16" stroke="#527B0B" stroke-width="5.31544"/>
    <mask id="mask2_1039_2041" style="mask-type:alpha" maskUnits="userSpaceOnUse" x="34" y="52" width="25" height="21">
    <path d="M43.8642 72.2804H36.0229C35.8648 72.2804 35.7335 72.1593 35.722 72.0016C35.629 70.7253 35.2524 65.3777 35.2524 62.4776C35.2524 59.5921 35.6252 54.6559 35.7206 53.4404C35.7329 53.2835 35.8638 53.1639 36.0212 53.1639H41.3224C41.4893 53.1639 41.6246 53.2993 41.6246 53.4662V54.2064C41.6246 54.4672 41.9295 54.6028 42.126 54.4314C43.2214 53.4757 44.857 52.3483 48.1193 53.1639C51.9181 54.1137 55.7169 58.4332 57.3099 61.3742C58.7417 64.0175 57.4017 70.7196 57.1158 72.0491C57.0863 72.1867 56.9651 72.2804 56.8244 72.2804H49.076C48.9442 72.2804 48.8279 72.1947 48.7857 72.0698C48.0401 69.8624 46.8274 68.4186 48.6095 66.3989C51.4269 63.2058 49.7123 60.3944 48.6095 59.6591C47.5066 58.9239 44.4431 58.3111 42.6049 59.414C40.7668 60.5169 41.1344 64.5554 43.0951 65.6636C45.5789 67.0675 44.4462 71.1359 44.1423 72.0821C44.1035 72.2029 43.9911 72.2804 43.8642 72.2804Z" fill="white" stroke="black" stroke-width="0.906666"/>
    </mask>
    <g mask="url(#mask2_1039_2041)">
    <path d="M43.8642 72.2804H36.0229C35.8648 72.2804 35.7335 72.1593 35.722 72.0016C35.629 70.7253 35.2524 65.3777 35.2524 62.4776C35.2524 59.5921 35.6252 54.6559 35.7206 53.4404C35.7329 53.2835 35.8638 53.1639 36.0212 53.1639H41.3224C41.4893 53.1639 41.6246 53.2993 41.6246 53.4662V54.2064C41.6246 54.4672 41.9295 54.6028 42.126 54.4314C43.2214 53.4757 44.857 52.3483 48.1193 53.1639C51.9181 54.1137 55.7169 58.4332 57.3099 61.3742C58.7417 64.0175 57.4017 70.7196 57.1158 72.0491C57.0863 72.1867 56.9651 72.2804 56.8244 72.2804H49.076C48.9442 72.2804 48.8279 72.1947 48.7857 72.0698C48.0401 69.8624 46.8274 68.4186 48.6095 66.3989C51.4269 63.2058 49.7123 60.3944 48.6095 59.6591C47.5066 58.9239 44.4431 58.3111 42.6049 59.414C40.7668 60.5169 41.1344 64.5554 43.0951 65.6636C45.5789 67.0675 44.4462 71.1359 44.1423 72.0821C44.1035 72.2029 43.9911 72.2804 43.8642 72.2804Z" fill="white" stroke="black" stroke-width="0.906666"/>
    </g>
    </g>
    <g clip-path="url(#clip2_1039_2041)">
    <path d="M53.7314 267.463C53.7314 281.341 42.4815 292.591 28.6039 292.591C14.7264 292.591 3.47639 281.341 3.47639 267.463C3.47639 253.586 14.7264 242.336 28.6039 242.336C42.4815 242.336 53.7314 253.586 53.7314 267.463Z" fill="#000A16" stroke="#527B0B" stroke-width="6.28188"/>
    <mask id="mask3_1039_2041" style="mask-type:alpha" maskUnits="userSpaceOnUse" x="15" y="254" width="29" height="25">
    <path d="M26.0799 278.359H16.8129C16.626 278.359 16.4709 278.216 16.4573 278.03C16.3474 276.521 15.9023 270.202 15.9023 266.774C15.9023 263.364 16.3429 257.53 16.4556 256.094C16.4702 255.908 16.6248 255.767 16.8108 255.767H23.0759C23.2732 255.767 23.4331 255.927 23.4331 256.124V256.999C23.4331 257.307 23.7934 257.468 24.0257 257.265C25.3202 256.136 27.2532 254.803 31.1086 255.767C35.5981 256.89 40.0876 261.994 41.9703 265.47C43.6624 268.594 42.0788 276.515 41.7409 278.086C41.7059 278.249 41.5628 278.359 41.3965 278.359H32.2393C32.0835 278.359 31.9461 278.258 31.8962 278.11C31.015 275.502 29.5818 273.795 31.6879 271.408C35.0176 267.635 32.9913 264.312 31.6879 263.443C30.3845 262.574 26.764 261.85 24.5916 263.154C22.4193 264.457 22.8538 269.23 25.1709 270.539C28.1064 272.199 26.7677 277.007 26.4085 278.125C26.3627 278.268 26.2298 278.359 26.0799 278.359Z" fill="white" stroke="black" stroke-width="1.07151"/>
    </mask>
    <g mask="url(#mask3_1039_2041)">
    <path d="M26.0799 278.359H16.8129C16.626 278.359 16.4709 278.216 16.4573 278.03C16.3474 276.521 15.9023 270.202 15.9023 266.774C15.9023 263.364 16.3429 257.53 16.4556 256.094C16.4702 255.908 16.6248 255.767 16.8108 255.767H23.0759C23.2732 255.767 23.4331 255.927 23.4331 256.124V256.999C23.4331 257.307 23.7934 257.468 24.0257 257.265C25.3202 256.136 27.2532 254.803 31.1086 255.767C35.5981 256.89 40.0876 261.994 41.9703 265.47C43.6624 268.594 42.0788 276.515 41.7409 278.086C41.7059 278.249 41.5628 278.359 41.3965 278.359H32.2393C32.0835 278.359 31.9461 278.258 31.8962 278.11C31.015 275.502 29.5818 273.795 31.6879 271.408C35.0176 267.635 32.9913 264.312 31.6879 263.443C30.3845 262.574 26.764 261.85 24.5916 263.154C22.4193 264.457 22.8538 269.23 25.1709 270.539C28.1064 272.199 26.7677 277.007 26.4085 278.125C26.3627 278.268 26.2298 278.359 26.0799 278.359Z" fill="white" stroke="black" stroke-width="1.07151"/>
    </g>
    </g>
    <g clip-path="url(#clip3_1039_2041)">
    <path d="M349.705 26.094C349.705 38.904 339.32 49.2886 326.51 49.2886C313.7 49.2886 303.315 38.904 303.315 26.094C303.315 13.2839 313.7 2.89933 326.51 2.89933C339.32 2.89933 349.705 13.2839 349.705 26.094Z" fill="#000A16" stroke="#527B0B" stroke-width="5.79866"/>
    <mask id="mask4_1039_2041" style="mask-type:alpha" maskUnits="userSpaceOnUse" x="314" y="14" width="27" height="23">
    <path d="M324.18 36.152H315.626C315.454 36.152 315.31 36.0199 315.298 35.8478C315.196 34.4555 314.786 28.6218 314.786 25.458C314.786 22.3102 315.192 16.9253 315.296 15.5993C315.31 15.4281 315.453 15.2976 315.624 15.2976H321.407C321.589 15.2976 321.737 15.4453 321.737 15.6274V16.4349C321.737 16.7194 322.07 16.8673 322.284 16.6803C323.479 15.6378 325.263 14.4079 328.822 15.2977C332.966 16.3338 337.11 21.0459 338.848 24.2543C340.41 27.138 338.949 34.4493 338.637 35.8996C338.604 36.0497 338.472 36.152 338.319 36.152H329.866C329.722 36.152 329.595 36.0585 329.549 35.9223C328.736 33.5141 327.413 31.9391 329.357 29.7358C332.43 26.2525 330.56 23.1854 329.357 22.3833C328.154 21.5812 324.812 20.9128 322.807 22.116C320.801 23.3191 321.202 27.7248 323.341 28.9337C326.051 30.4653 324.815 34.9034 324.484 35.9357C324.441 36.0674 324.319 36.152 324.18 36.152Z" fill="white" stroke="black" stroke-width="0.98909"/>
    </mask>
    <g mask="url(#mask4_1039_2041)">
    <path d="M324.18 36.152H315.626C315.454 36.152 315.31 36.0199 315.298 35.8478C315.196 34.4555 314.786 28.6218 314.786 25.458C314.786 22.3102 315.192 16.9253 315.296 15.5993C315.31 15.4281 315.453 15.2976 315.624 15.2976H321.407C321.589 15.2976 321.737 15.4453 321.737 15.6274V16.4349C321.737 16.7194 322.07 16.8673 322.284 16.6803C323.479 15.6378 325.263 14.4079 328.822 15.2977C332.966 16.3338 337.11 21.0459 338.848 24.2543C340.41 27.138 338.949 34.4493 338.637 35.8996C338.604 36.0497 338.472 36.152 338.319 36.152H329.866C329.722 36.152 329.595 36.0585 329.549 35.9223C328.736 33.5141 327.413 31.9391 329.357 29.7358C332.43 26.2525 330.56 23.1854 329.357 22.3833C328.154 21.5812 324.812 20.9128 322.807 22.116C320.801 23.3191 321.202 27.7248 323.341 28.9337C326.051 30.4653 324.815 34.9034 324.484 35.9357C324.441 36.0674 324.319 36.152 324.18 36.152Z" fill="white" stroke="black" stroke-width="0.98909"/>
    </g>
    </g>
    <g clip-path="url(#clip4_1039_2041)">
    <path d="M416.027 275.074C416.027 283.08 409.537 289.57 401.53 289.57C393.524 289.57 387.034 283.08 387.034 275.074C387.034 267.068 393.524 260.577 401.53 260.577C409.537 260.577 416.027 267.068 416.027 275.074Z" fill="#000A16" stroke="#527B0B" stroke-width="3.62416"/>
    <mask id="mask5_1039_2041" style="mask-type:alpha" maskUnits="userSpaceOnUse" x="393" y="267" width="17" height="15">
    <path d="M400.074 281.36H394.728C394.62 281.36 394.531 281.277 394.523 281.17C394.459 280.3 394.203 276.654 394.203 274.676C394.203 272.709 394.457 269.343 394.522 268.515C394.53 268.408 394.619 268.326 394.727 268.326H398.341C398.455 268.326 398.547 268.418 398.547 268.532V269.037C398.547 269.215 398.755 269.307 398.889 269.19C399.636 268.539 400.751 267.77 402.975 268.326C405.566 268.974 408.156 271.919 409.242 273.924C410.218 275.726 409.304 280.296 409.109 281.202C409.089 281.296 409.007 281.36 408.911 281.36H403.628C403.538 281.36 403.459 281.302 403.43 281.216C402.921 279.711 402.095 278.727 403.31 277.35C405.231 275.173 404.062 273.256 403.31 272.755C402.558 272.253 400.469 271.836 399.216 272.588C397.962 273.339 398.213 276.093 399.55 276.849C401.243 277.806 400.471 280.58 400.264 281.225C400.237 281.307 400.161 281.36 400.074 281.36Z" fill="white" stroke="black" stroke-width="0.618181"/>
    </mask>
    <g mask="url(#mask5_1039_2041)">
    <path d="M400.074 281.36H394.728C394.62 281.36 394.531 281.277 394.523 281.17C394.459 280.3 394.203 276.654 394.203 274.676C394.203 272.709 394.457 269.343 394.522 268.515C394.53 268.408 394.619 268.326 394.727 268.326H398.341C398.455 268.326 398.547 268.418 398.547 268.532V269.037C398.547 269.215 398.755 269.307 398.889 269.19C399.636 268.539 400.751 267.77 402.975 268.326C405.566 268.974 408.156 271.919 409.242 273.924C410.218 275.726 409.304 280.296 409.109 281.202C409.089 281.296 409.007 281.36 408.911 281.36H403.628C403.538 281.36 403.459 281.302 403.43 281.216C402.921 279.711 402.095 278.727 403.31 277.35C405.231 275.173 404.062 273.256 403.31 272.755C402.558 272.253 400.469 271.836 399.216 272.588C397.962 273.339 398.213 276.093 399.55 276.849C401.243 277.806 400.471 280.58 400.264 281.225C400.237 281.307 400.161 281.36 400.074 281.36Z" fill="white" stroke="black" stroke-width="0.618181"/>
    </g>
    </g>
    <path d="M116.054 35.7083L120.703 44.2086C120.866 44.5047 121.107 44.7455 121.403 44.9086L129.905 49.5577C131.127 50.2251 131.127 51.9763 129.905 52.6437L121.403 57.2927C121.107 57.4558 120.866 57.6967 120.703 57.9927L116.054 66.493C115.386 67.7149 113.635 67.7149 112.967 66.493L108.318 57.9927C108.154 57.6967 107.914 57.4558 107.618 57.2927L99.1162 52.6437C97.8942 51.9763 97.8942 50.2251 99.1162 49.5577L107.618 44.9086C107.914 44.748 108.154 44.5047 108.318 44.2086L112.967 35.7083C113.635 34.4865 115.386 34.4865 116.054 35.7083Z" fill="black"/>
    <path d="M85.4011 296.526L89.4307 303.893C89.5721 304.149 89.7809 304.358 90.0375 304.499L97.4053 308.529C98.4643 309.107 98.4643 310.625 97.4053 311.203L90.0375 315.232C89.7809 315.374 89.5721 315.582 89.4307 315.839L85.4011 323.206C84.8226 324.265 83.3047 324.265 82.7262 323.206L78.6966 315.839C78.5552 315.582 78.3464 315.374 78.0898 315.232L70.722 311.203C69.663 310.625 69.663 309.107 70.722 308.529L78.0898 304.499C78.3464 304.36 78.5552 304.149 78.6966 303.893L82.7262 296.526C83.3047 295.467 84.8226 295.467 85.4011 296.526Z" fill="black"/>
    <path d="M376.407 300.63L379.197 305.731C379.295 305.908 379.439 306.053 379.617 306.151L384.718 308.94C385.451 309.34 385.451 310.391 384.718 310.792L379.617 313.581C379.439 313.679 379.295 313.823 379.197 314.001L376.407 319.101C376.007 319.834 374.956 319.834 374.555 319.101L371.766 314.001C371.668 313.823 371.523 313.679 371.346 313.581L366.245 310.792C365.512 310.391 365.512 309.34 366.245 308.94L371.346 306.151C371.523 306.054 371.668 305.908 371.766 305.731L374.555 300.63C374.956 299.897 376.007 299.897 376.407 300.63Z" fill="black"/>
    <path d="M337.262 81.0062L340.051 86.1064C340.149 86.284 340.294 86.4285 340.471 86.5264L345.572 89.3158C346.305 89.7162 346.305 90.767 345.572 91.1674L340.471 93.9569C340.294 94.0547 340.149 94.1992 340.051 94.3768L337.262 99.477C336.861 100.21 335.81 100.21 335.41 99.477L332.62 94.3768C332.522 94.1992 332.378 94.0547 332.2 93.9569L327.099 91.1674C326.366 90.767 326.366 89.7162 327.099 89.3158L332.2 86.5264C332.378 86.43 332.522 86.284 332.62 86.1064L335.41 81.0062C335.81 80.2731 336.861 80.2731 337.262 81.0062Z" fill="black"/>
    <defs>
    <linearGradient id="paint0_linear_1039_2041" x1="236.125" y1="110.899" x2="236.125" y2="287.034" gradientUnits="userSpaceOnUse">
    <stop stop-color="#74A409"/>
    <stop offset="1" stop-color="#50780A"/>
    </linearGradient>
    <linearGradient id="paint1_linear_1039_2041" x1="236.125" y1="110.899" x2="236.125" y2="287.034" gradientUnits="userSpaceOnUse">
    <stop stop-color="#74A409"/>
    <stop offset="1" stop-color="#50780A"/>
    </linearGradient>
    <clipPath id="clip0_1039_2041">
    <rect width="63.0604" height="63.0604" fill="white" transform="translate(385.222 54.3624)"/>
    </clipPath>
    <clipPath id="clip1_1039_2041">
    <rect width="47.8389" height="47.8389" fill="white" transform="translate(22.0806 39.1409)"/>
    </clipPath>
    <clipPath id="clip2_1039_2041">
    <rect width="56.5369" height="56.5369" fill="white" transform="translate(0.335449 239.195)"/>
    </clipPath>
    <clipPath id="clip3_1039_2041">
    <rect width="52.1879" height="52.1879" fill="white" transform="translate(300.416)"/>
    </clipPath>
    <clipPath id="clip4_1039_2041">
    <rect width="32.6175" height="32.6175" fill="white" transform="translate(385.222 258.765)"/>
    </clipPath>
    </defs>
    </svg>
    