<svg width="363" height="66" viewBox="0 0 363 66" fill="none" xmlns="http://www.w3.org/2000/svg">
<mask id="mask0_1012_1080" style="mask-type:alpha" maskUnits="userSpaceOnUse" x="0" y="0" width="74" height="64">
<path d="M28.7447 61.9621H4.21782C3.82152 61.9621 3.49322 61.669 3.4643 61.2737C3.20033 57.6663 2 40.7622 2 31.659C2 22.5988 3.18903 6.99769 3.4605 3.55375C3.4915 3.16045 3.81901 2.86801 4.21353 2.86801H20.9404C21.3588 2.86801 21.698 3.2075 21.698 3.62593V6.48342C21.698 7.13713 22.4638 7.47939 22.953 7.04574C26.3406 4.04268 31.393 0.2724 41.7749 2.86811C53.518 5.80415 65.261 19.1567 70.1855 28.2482C74.661 36.5107 70.376 57.6009 69.5573 61.3784C69.4826 61.7232 69.178 61.9621 68.8252 61.9621H44.603C44.2724 61.9621 43.9805 61.7467 43.8759 61.4332C41.5749 54.5404 37.7485 50.0614 43.2901 43.7809C51.9995 33.9103 46.6994 25.2193 43.2901 22.9464C39.8809 20.6736 30.4106 18.7795 24.7285 22.1888C19.0464 25.5981 20.1828 38.0823 26.2437 41.5081C34.0326 45.9105 30.3173 58.7883 29.4419 61.4696C29.3432 61.7719 29.0627 61.9621 28.7447 61.9621Z" fill="url(#paint0_linear_1012_1080)" stroke="black" stroke-width="2.27285"/>
</mask>
<g mask="url(#mask0_1012_1080)">
<path d="M28.7447 61.9621H4.21782C3.82152 61.9621 3.49322 61.669 3.4643 61.2737C3.20033 57.6663 2 40.7622 2 31.659C2 22.5988 3.18903 6.99769 3.4605 3.55375C3.4915 3.16045 3.81901 2.86801 4.21353 2.86801H20.9404C21.3588 2.86801 21.698 3.2075 21.698 3.62593V6.48342C21.698 7.13713 22.4638 7.47939 22.953 7.04574C26.3406 4.04268 31.393 0.2724 41.7749 2.86811C53.518 5.80415 65.261 19.1567 70.1855 28.2482C74.661 36.5107 70.376 57.6009 69.5573 61.3784C69.4826 61.7232 69.178 61.9621 68.8252 61.9621H44.603C44.2724 61.9621 43.9805 61.7467 43.8759 61.4332C41.5749 54.5404 37.7485 50.0614 43.2901 43.7809C51.9995 33.9103 46.6994 25.2193 43.2901 22.9464C39.8809 20.6736 30.4106 18.7795 24.7285 22.1888C19.0464 25.5981 20.1828 38.0823 26.2437 41.5081C34.0326 45.9105 30.3173 58.7883 29.4419 61.4696C29.3432 61.7719 29.0627 61.9621 28.7447 61.9621Z" fill="url(#paint1_linear_1012_1080)" stroke="black" stroke-width="2.27285"/>
<g style="mix-blend-mode:hard-light" opacity="0.5">
<path fill-rule="evenodd" clip-rule="evenodd" d="M33.279 5.69925C32.6561 3.65265 32.0323 1.60281 31.7201 -0.495612L31.7207 -0.492979C31.6715 -0.82204 32.1421 -0.986725 32.3239 -0.718994C34.2114 2.05113 35.1804 5.4919 36.0141 8.74625C36.5458 7.97875 38.0616 8.05685 38.5383 9.06024C40.5683 13.3294 42.0787 17.8586 43.3068 22.4222C43.4824 23.0751 43.672 23.7403 43.8641 24.4144C44.9064 28.0716 46.0238 31.9922 45.4027 35.6485C45.2822 36.3595 44.2203 36.7004 43.8112 36.0221C42.1879 33.3303 41.4997 30.1109 40.8232 26.9456L40.8232 26.9455L40.8231 26.9454C40.5576 25.703 40.2938 24.469 39.976 23.2785C39.5934 21.8447 39.2007 20.414 38.7922 18.9882C38.646 19.733 38.4383 20.4607 38.1526 21.1626C37.7805 22.0787 36.3972 21.8024 36.3008 20.8598C35.913 17.0416 35.2735 13.2717 34.369 9.54242C34.0568 8.25526 33.6681 6.97789 33.279 5.69925ZM17.1574 6.93483L17.1239 7.20269C17.0824 7.53728 17.1885 7.90955 17.4727 8.117C18.1651 8.62075 18.9001 9.06893 19.6346 9.51683C20.4555 10.0174 21.2758 10.5176 22.0354 11.0946C23.6743 12.3395 24.2657 14.2791 24.8461 16.1829C24.9521 16.5307 25.0578 16.8772 25.1694 17.2181C25.549 18.3789 25.906 19.5661 26.265 20.7601L26.2651 20.7601L26.2651 20.7602L26.2651 20.7602L26.2651 20.7602L26.2651 20.7602L26.2651 20.7603L26.2651 20.7603L26.2651 20.7603C27.1762 23.7903 28.1006 26.8643 29.4416 29.6629C29.819 30.4489 30.9459 30.2176 30.9289 29.3231C30.889 27.3341 30.4452 25.349 30.0069 23.3885C29.8669 22.7623 29.7274 22.1386 29.6019 21.518C29.1342 19.2121 28.346 16.8689 27.5286 14.6626C25.8831 10.224 22.511 8.44977 18.4794 6.47138C18.1696 6.31946 17.7929 6.38222 17.5162 6.57085C17.4937 6.5862 17.4688 6.60169 17.4429 6.61777C17.3204 6.69403 17.1763 6.78368 17.1574 6.93483ZM-0.764453 5.95783C-0.00893248 7.11994 1.08747 8.08548 2.17426 9.04256L2.17428 9.04258C2.82486 9.61551 3.472 10.1854 4.04051 10.7926C5.73418 12.601 7.28324 14.539 8.73283 16.5466C9.90196 18.1655 11.0118 19.8236 12.0852 21.5053C10.9174 20.3804 9.72723 19.2786 8.51297 18.202C8.1316 17.8638 7.7452 17.5116 7.35255 17.1536C4.92022 14.9361 2.24786 12.4998 -0.957574 11.841C-1.52989 11.7239 -2.15297 12.2766 -2.05642 12.8684C-1.8073 14.3961 -1.22976 15.399 0.0971686 16.2021C0.567828 16.4866 0.901978 15.8299 0.697789 15.4628C0.48125 15.0753 0.303614 14.6906 0.166014 14.2968C2.51742 15.4266 4.58086 17.2892 6.52756 19.0465L6.52789 19.0468C6.88256 19.367 7.23336 19.6837 7.58132 19.9918C10.7007 22.753 13.6673 25.6769 16.4882 28.7414L16.4906 28.7455L16.4914 28.7449C17.3151 29.6375 18.6798 28.7019 18.04 27.6299L17.9802 27.5298C15.4013 23.2123 12.813 18.879 9.75895 14.874C8.41509 13.1117 6.98587 11.417 5.45381 9.81358C5.26643 9.61759 5.0752 9.41399 4.87995 9.20612L4.87994 9.2061L4.87993 9.20609C3.4341 7.66678 1.76829 5.89325 -0.180556 5.23868C-0.625242 5.0891 -1.03482 5.53932 -0.763945 5.95545L-0.764453 5.95783ZM26.389 34.117C24.6247 33.9 22.617 34.9167 20.8291 35.822L20.829 35.822L20.8287 35.8222L20.8285 35.8223L20.8285 35.8223C20.2213 36.1298 19.6394 36.4244 19.1011 36.6534C18.6079 36.8631 18.1133 37.071 17.6184 37.2789L17.6183 37.2789L17.6183 37.2789C15.3539 38.2304 13.0843 39.1841 10.9121 40.3311C8.8909 41.398 7.30418 42.7887 8.09995 45.2444C9.14955 48.4837 8.75986 50.5425 7.22356 53.5548C6.96084 54.0694 7.44693 54.7072 8.01724 54.4214C10.0433 53.4074 11.174 51.1459 11.3959 48.9592C11.5017 47.9216 11.4233 46.84 11.151 45.8334C11.0942 45.6226 11.0141 45.4201 10.9354 45.2212L10.9354 45.2211C10.6927 44.6075 10.463 44.0268 10.9691 43.3344C11.1839 43.041 11.7411 42.7931 12.1879 42.5944L12.1881 42.5943C12.3496 42.5225 12.4967 42.4571 12.6079 42.3982C14.6855 41.3049 16.8056 40.292 18.9243 39.2798L18.9308 39.2767C19.3358 39.0832 19.7408 38.8898 20.1454 38.6957C20.5675 38.4932 21.048 38.29 21.5539 38.0761C23.487 37.2588 25.7921 36.2841 26.6342 34.5846C26.7394 34.3719 26.6305 34.1479 26.3889 34.1182L26.389 34.117ZM69.9034 63.8276C70.1731 64.7859 70.4574 65.7965 69.7662 66.599C69.6635 66.7189 69.5159 66.7459 69.3712 66.6951C68.1628 66.2715 67.5857 64.4226 67.1154 62.9157C66.9543 62.3997 66.8058 61.9239 66.6488 61.5591C65.6599 59.2639 64.613 56.9552 63.3556 54.7932C63.278 54.66 63.1965 54.5093 63.111 54.3514L63.1101 54.3496L63.1095 54.3486L63.1094 54.3483C62.8652 53.8969 62.5898 53.3878 62.287 53.0646C62.1619 52.9305 62.0868 52.8107 62.0343 52.7269C61.9172 52.54 61.9123 52.5323 61.7154 52.944C61.4789 53.4376 61.6071 54.3179 61.7128 55.0438C61.7524 55.3156 61.7889 55.5658 61.8018 55.7659C61.9171 57.5475 61.8325 59.1172 61.154 60.7818C60.8248 61.5901 59.5725 61.9838 58.9039 61.3261C56.8287 59.2821 54.9534 57.1115 53.1874 54.7962C53.0667 54.638 52.9432 54.4771 52.8179 54.3137L52.8176 54.3133L52.8175 54.3133L52.8175 54.3132C51.3207 52.3631 49.5551 50.0628 49.0594 47.7092C48.8066 46.508 50.4315 45.8553 51.273 46.5188C52.663 47.616 53.751 49.3159 54.7845 50.9307C55.1947 51.5716 55.5963 52.1991 56.0049 52.7702C56.9918 54.1505 58.0217 55.5026 59.063 56.8453C59.0514 56.2718 58.9926 55.6858 58.9337 55.0989C58.8173 53.9384 58.7005 52.7744 58.9477 51.6968C59.5291 49.1628 62.0099 48.2895 63.8382 50.231C65.8612 52.3796 67.2524 55.9041 68.2863 58.6357C68.8777 60.1977 69.3691 61.8032 69.7911 63.4188C69.8263 63.5535 69.8647 63.69 69.9034 63.8276ZM76.9719 36.9236C76.1527 36.4967 75.0693 36.6708 74.069 36.8316C73.6923 36.8921 73.3274 36.9507 72.9928 36.9747C71.0965 37.1107 69.1871 37.0515 67.289 36.9927L67.2889 36.9926L67.2269 36.9907L66.8815 36.9804C65.1561 36.9293 63.4342 36.8782 61.7605 36.4012C61.2227 36.2475 60.639 36.0396 60.0957 35.7722C61.0358 35.103 61.8393 34.1912 62.4934 33.1393C63.9328 30.8244 65.0732 27.0521 61.8274 25.6071C59.6913 24.6561 57.7967 25.4683 55.8851 26.2878C55.2094 26.5775 54.5317 26.868 53.8404 27.082C51.3858 27.8417 49.8725 26.1116 48.3714 24.3955C47.7297 23.6618 47.0901 22.9307 46.3802 22.3977C45.9253 22.0568 45.2446 22.3957 45.2966 22.9804C45.6672 27.0836 49.2299 30.2163 53.263 30.2912C55.0845 30.3254 57.08 29.9997 58.8922 29.7039L59.2207 29.6503C59.2553 29.6447 59.2877 29.6329 59.3173 29.6174C59.284 29.6647 59.2457 29.722 59.202 29.7907C59.0617 30.0107 58.9534 30.2361 58.8455 30.4609C58.7089 30.7455 58.5727 31.0291 58.3725 31.2999C57.6854 32.2285 56.9669 32.7036 55.7971 32.6981C53.8854 32.6886 53.2965 35.3976 54.6631 36.4755C56.1581 37.6567 58.4677 38.3145 60.3108 38.8395L60.3978 38.8643C62.4469 39.4494 64.4572 39.5396 66.5737 39.5342L67.0173 39.5333C68.979 39.5294 70.943 39.5256 72.893 39.2691C72.9899 39.2564 73.0912 39.2437 73.196 39.2306C74.5927 39.0556 76.6157 38.8022 77.1568 37.4047C77.231 37.214 77.154 37.0209 76.9726 36.9262L76.9719 36.9236ZM82.8897 19.3426C86.7806 14.523 91.5085 24.2242 92.3996 27.0534L92.4023 27.0528C92.7363 28.112 91.3546 28.8788 90.673 27.9731C90.1286 27.2488 89.6469 26.3862 89.1579 25.5105L89.1579 25.5104C88.3704 24.1003 87.564 22.6561 86.446 21.6999C85.0923 20.5427 84.6933 21.7799 84.3236 22.9257C84.2119 23.2721 84.1028 23.6101 83.9709 23.8711C83.4925 24.8193 82.772 25.6537 81.7405 25.9688C79.9438 26.5175 78.3835 25.2083 76.9986 24.0462C76.6507 23.7543 76.3138 23.4716 75.9871 23.23C73.8016 21.6155 71.4471 20.2859 68.9625 19.2048C67.8934 18.7392 68.2419 17.2332 69.3104 17.0715C72.31 16.6187 74.8411 17.9486 77.2156 19.698C77.6389 20.0101 78.0627 20.4202 78.4944 20.8379C79.167 21.4887 79.8587 22.1579 80.5968 22.5033C80.9958 23.0538 81.3476 22.9384 81.6523 22.1572C81.7887 21.7744 81.9144 21.3894 82.0287 20.9994C82.2533 20.4127 82.4907 19.8361 82.8897 19.3426ZM62.2002 9.30009C61.8846 9.50336 61.5935 9.71779 61.3059 9.92966L61.3058 9.92968C60.7403 10.3463 60.1882 10.7529 59.4899 11.0453C58.4352 11.4868 57.3081 11.7946 56.2031 12.0963L55.8731 12.1866C55.4203 12.311 54.9546 12.4279 54.4835 12.5462L54.4834 12.5462C52.4312 13.0614 50.276 13.6024 48.6312 14.8992C48.1989 15.2401 48.1802 16.0399 48.7709 16.2517C51.9076 17.3735 55.5546 16.1018 58.5319 15.0009C60.6162 14.2308 64.1365 12.6957 63.5294 9.90582C63.3932 9.27825 62.7782 8.92935 62.2009 9.30272L62.2002 9.30009ZM29.6436 37.0713C30.5177 35.1187 31.3931 33.1631 32.5355 31.3753L32.5342 31.3778C32.7131 31.0972 33.1762 31.2821 33.1376 31.6034C32.7423 34.932 31.2138 38.1634 29.7058 41.1653C30.6108 40.9356 31.7027 41.9898 31.4034 43.0596C30.1312 47.6124 28.2965 52.0202 26.2262 56.2685C25.93 56.8763 25.6362 57.5025 25.3385 58.1371C23.7232 61.5799 21.9916 65.2705 19.1224 67.6204C18.5647 68.0775 17.5398 67.6374 17.6767 66.8571C18.2198 63.761 19.8148 60.881 21.3829 58.0495C21.9984 56.938 22.6097 55.834 23.1518 54.7274C23.8047 53.3947 24.4479 52.0578 25.076 50.7142C24.4767 51.18 23.8422 51.5925 23.1659 51.9341C22.2837 52.3808 21.4218 51.2641 21.9681 50.4899C24.1827 47.3555 26.1757 44.0922 27.9422 40.6856C28.5519 39.5098 29.0975 38.2912 29.6436 37.0713Z" fill="black"/>
</g>
<path d="M57.3352 18.5988C55.2955 16.1497 52.93 13.8197 50.0621 11.9732C47.0067 10.0077 43.437 8.4916 39.335 7.52672C34.9535 6.49584 32.7381 7.71049 27.38 8.17083C26.9799 8.20544 26.9389 7.10635 27.38 7.03439C31.1681 5.51916 35.0517 4.69416 39.335 5.49536C43.7731 6.32587 47.5537 7.88423 50.7885 9.89946C53.9732 11.8832 56.7941 14.1438 59.0734 16.7999C65.8148 24.6563 61.8517 26.0883 61.4729 26.0883C61.4487 26.0883 58.16 19.5892 57.3352 18.5988Z" fill="white"/>
</g>
<path d="M124.371 30.9998H119.068L110.059 18.6679V30.9998H104.564V9.69056H110.219L118.844 21.4154V9.69056H124.371V30.9998ZM158.691 30.9998H143.068V9.69056H158.691V14.4827H148.563V17.8053H158.467V22.5975H148.563V26.2076H158.691V30.9998ZM182.232 30.9998H176.737V9.69056H187.408C189.708 9.69056 191.518 10.3721 192.839 11.7352C194.159 13.077 194.82 14.7596 194.82 16.783C194.82 18.785 194.159 20.4676 192.839 21.8307C191.518 23.1725 189.708 23.8434 187.408 23.8434H182.232V30.9998ZM186.673 19.0513C187.418 19.0513 188.025 18.8489 188.494 18.4443C188.984 18.0396 189.229 17.4858 189.229 16.783C189.229 16.0588 188.984 15.4944 188.494 15.0897C188.025 14.6851 187.418 14.4827 186.673 14.4827H182.232V19.0513H186.673ZM231.961 30.9998H226.466V22.4377H217.617V30.9998H212.122V9.69056H217.617V17.6456H226.466V9.69056H231.961V30.9998ZM268.836 30.9998H262.542L258.964 23.8434H256.153V30.9998H250.658V9.69056H261.328C263.628 9.69056 265.439 10.3615 266.759 11.7033C268.08 13.0451 268.74 14.7383 268.74 16.783C268.74 18.4869 268.314 19.8819 267.462 20.9681C266.632 22.0331 265.641 22.7679 264.491 23.1725L268.836 30.9998ZM260.498 19.0513C261.243 19.0513 261.871 18.8489 262.383 18.4443C262.894 18.0396 263.149 17.4752 263.149 16.751C263.149 16.0482 262.894 15.4944 262.383 15.0897C261.871 14.6851 261.243 14.4827 260.498 14.4827H256.153V19.0513H260.498ZM292.13 30.9998H286.635V9.69056H292.13V30.9998ZM321.075 30.9998H315.58V14.4827H309.605V9.69056H327.017V14.4827H321.075V30.9998ZM360.111 30.9998H344.488V9.69056H360.111V14.4827H349.983V17.8053H359.887V22.5975H349.983V26.2076H360.111V30.9998Z" fill="black"/>
<path d="M116.731 60.1018H113.922L112.887 57.3987H106.425L105.39 60.1018H102.582L108.114 46.0163H111.198L116.731 60.1018ZM112.19 55.2236L109.656 48.5082L107.122 55.2236H112.19ZM132.14 60.3552C130.028 60.3552 128.268 59.6795 126.86 58.3279C125.453 56.9623 124.749 55.2095 124.749 53.0696C124.749 50.9297 125.453 49.1839 126.86 47.8324C128.268 46.4668 130.028 45.784 132.14 45.784C134.59 45.784 136.476 46.8399 137.799 48.9516L135.688 50.0286C135.336 49.4233 134.836 48.9305 134.188 48.5504C133.555 48.1703 132.872 47.9802 132.14 47.9802C130.746 47.9802 129.585 48.4589 128.655 49.4162C127.74 50.3736 127.283 51.5914 127.283 53.0696C127.283 54.5478 127.74 55.7656 128.655 56.723C129.585 57.6803 130.746 58.159 132.14 58.159C132.886 58.159 133.576 57.9689 134.209 57.5888C134.843 57.2087 135.336 56.7159 135.688 56.1106L137.799 57.1876C136.448 59.2993 134.561 60.3552 132.14 60.3552ZM145.162 60.3552C143.585 60.3552 142.318 59.8414 141.361 58.8136C140.403 57.7718 139.925 56.4977 139.925 54.9913C139.925 53.4849 140.403 52.2179 141.361 51.1901C142.318 50.1624 143.585 49.6485 145.162 49.6485C146.753 49.6485 148.027 50.1624 148.984 51.1901C149.942 52.2179 150.42 53.4849 150.42 54.9913C150.42 56.5118 149.942 57.7859 148.984 58.8136C148.027 59.8414 146.753 60.3552 145.162 60.3552ZM145.162 58.3913C146.077 58.3913 146.795 58.0675 147.316 57.4199C147.851 56.7582 148.118 55.9487 148.118 54.9913C148.118 54.0481 147.851 53.2526 147.316 52.605C146.795 51.9433 146.077 51.6125 145.162 51.6125C144.261 51.6125 143.543 51.9433 143.008 52.605C142.487 53.2526 142.227 54.0481 142.227 54.9913C142.227 55.9487 142.487 56.7582 143.008 57.4199C143.543 58.0675 144.261 58.3913 145.162 58.3913ZM162.61 60.1018H160.393V53.7243C160.393 52.3164 159.71 51.6125 158.345 51.6125C157.81 51.6125 157.31 51.7462 156.845 52.0137C156.381 52.2812 156.007 52.605 155.726 52.9851V60.1018H153.509V49.9019H155.726V51.2957C156.106 50.8452 156.613 50.458 157.246 50.1342C157.88 49.8104 158.57 49.6485 159.316 49.6485C160.4 49.6485 161.217 49.9301 161.766 50.4932C162.329 51.0564 162.61 51.8659 162.61 52.9218V60.1018ZM169.08 60.1018H166.863V51.8448H165.174V49.9019H166.863V49.3318C166.863 48.2196 167.159 47.3537 167.75 46.7343C168.341 46.1148 169.123 45.8051 170.094 45.8051C170.812 45.8051 171.403 45.9388 171.868 46.2063L171.382 47.8535C171.157 47.6987 170.861 47.6212 170.495 47.6212C170.059 47.6212 169.714 47.7691 169.461 48.0647C169.207 48.3463 169.08 48.7686 169.08 49.3318V49.9019H171.15V51.8448H169.08V60.1018ZM173.937 48.656C173.571 48.656 173.248 48.5222 172.966 48.2548C172.699 47.9873 172.565 47.6635 172.565 47.2833C172.565 46.9032 172.699 46.5794 172.966 46.3119C173.248 46.0444 173.571 45.9107 173.937 45.9107C174.318 45.9107 174.641 46.0444 174.909 46.3119C175.176 46.5794 175.31 46.9032 175.31 47.2833C175.31 47.6635 175.176 47.9873 174.909 48.2548C174.641 48.5222 174.318 48.656 173.937 48.656ZM175.057 60.1018H172.839V49.9019H175.057V60.1018ZM188.167 60.1018H185.95V58.708C185.105 59.8062 184.014 60.3552 182.677 60.3552C181.339 60.3552 180.248 59.8766 179.403 58.9192C178.559 57.9619 178.136 56.6596 178.136 55.0124C178.136 53.3793 178.559 52.0771 179.403 51.1057C180.248 50.1342 181.339 49.6485 182.677 49.6485C184.014 49.6485 185.105 50.2046 185.95 51.3168V46.0163H188.167V60.1018ZM183.31 58.3913C183.831 58.3913 184.338 58.2646 184.831 58.0112C185.323 57.7577 185.696 57.4339 185.95 57.0397V52.9851C185.696 52.5909 185.323 52.2671 184.831 52.0137C184.338 51.7462 183.831 51.6125 183.31 51.6125C182.437 51.6125 181.74 51.9292 181.219 52.5628C180.699 53.1963 180.438 54.0129 180.438 55.0124C180.438 56.012 180.699 56.8286 181.219 57.4621C181.74 58.0815 182.437 58.3913 183.31 58.3913ZM196.594 60.3552C195.046 60.3552 193.765 59.8625 192.751 58.877C191.751 57.8774 191.252 56.5822 191.252 54.9913C191.252 53.499 191.737 52.239 192.709 51.2112C193.694 50.1694 194.933 49.6485 196.425 49.6485C197.932 49.6485 199.143 50.1694 200.058 51.2112C200.987 52.253 201.451 53.5835 201.451 55.2025V55.7304H193.574C193.659 56.5329 193.99 57.2016 194.567 57.7366C195.144 58.2716 195.897 58.5391 196.827 58.5391C197.348 58.5391 197.868 58.4405 198.389 58.2434C198.924 58.0463 199.368 57.7718 199.72 57.4199L200.733 58.877C199.706 59.8625 198.326 60.3552 196.594 60.3552ZM199.297 54.1677C199.269 53.4638 199.009 52.8373 198.516 52.2882C198.037 51.7392 197.34 51.4647 196.425 51.4647C195.553 51.4647 194.87 51.7392 194.377 52.2882C193.884 52.8232 193.61 53.4497 193.553 54.1677H199.297ZM213.587 60.1018H211.369V53.7243C211.369 52.3164 210.686 51.6125 209.321 51.6125C208.786 51.6125 208.286 51.7462 207.821 52.0137C207.357 52.2812 206.984 52.605 206.702 52.9851V60.1018H204.485V49.9019H206.702V51.2957C207.082 50.8452 207.589 50.458 208.223 50.1342C208.856 49.8104 209.546 49.6485 210.292 49.6485C211.376 49.6485 212.193 49.9301 212.742 50.4932C213.305 51.0564 213.587 51.8659 213.587 52.9218V60.1018ZM220.373 60.3552C219.515 60.3552 218.86 60.13 218.409 59.6795C217.973 59.2289 217.755 58.5813 217.755 57.7366V51.8448H216.065V49.9019H217.755V47.1144H219.972V49.9019H222.042V51.8448H219.972V57.1876C219.972 57.5536 220.057 57.8492 220.226 58.0745C220.394 58.2857 220.634 58.3913 220.944 58.3913C221.394 58.3913 221.725 58.2716 221.936 58.0323L222.464 59.7006C221.999 60.137 221.303 60.3552 220.373 60.3552ZM225.998 48.656C225.632 48.656 225.308 48.5222 225.026 48.2548C224.759 47.9873 224.625 47.6635 224.625 47.2833C224.625 46.9032 224.759 46.5794 225.026 46.3119C225.308 46.0444 225.632 45.9107 225.998 45.9107C226.378 45.9107 226.702 46.0444 226.969 46.3119C227.237 46.5794 227.37 46.9032 227.37 47.2833C227.37 47.6635 227.237 47.9873 226.969 48.2548C226.702 48.5222 226.378 48.656 225.998 48.656ZM227.117 60.1018H224.9V49.9019H227.117V60.1018ZM239.285 60.1018H237.068V59.0037C236.28 59.9047 235.181 60.3552 233.774 60.3552C232.844 60.3552 232.021 60.0596 231.303 59.4683C230.585 58.8629 230.226 58.0323 230.226 56.9764C230.226 55.8923 230.578 55.0687 231.282 54.5056C232 53.9425 232.83 53.6609 233.774 53.6609C235.224 53.6609 236.322 54.0973 237.068 54.9702V53.4497C237.068 52.8584 236.85 52.3938 236.413 52.056C235.977 51.7181 235.4 51.5491 234.682 51.5491C233.541 51.5491 232.535 51.9785 231.662 52.8373L230.754 51.2957C231.908 50.1976 233.337 49.6485 235.041 49.6485C236.294 49.6485 237.314 49.9442 238.103 50.5355C238.891 51.1268 239.285 52.063 239.285 53.3441V60.1018ZM234.639 58.8347C235.752 58.8347 236.561 58.4828 237.068 57.7789V56.2373C236.561 55.5333 235.752 55.1814 234.639 55.1814C234.006 55.1814 233.485 55.3503 233.077 55.6882C232.668 56.0261 232.464 56.4696 232.464 57.0186C232.464 57.5677 232.668 58.0112 233.077 58.349C233.485 58.6728 234.006 58.8347 234.639 58.8347ZM245.222 60.1018H243.005V46.0163H245.222V60.1018ZM260.09 60.3552C257.669 60.3552 255.761 59.6091 254.367 58.1167L255.74 56.2161C256.951 57.5114 258.436 58.159 260.196 58.159C261.139 58.159 261.843 57.9689 262.307 57.5888C262.786 57.2087 263.025 56.7582 263.025 56.2373C263.025 55.7023 262.744 55.2799 262.181 54.9702C261.618 54.6464 260.935 54.393 260.132 54.21C259.33 54.0269 258.52 53.8087 257.704 53.5553C256.901 53.3019 256.218 52.8725 255.655 52.2671C255.092 51.6618 254.811 50.8804 254.811 49.9231C254.811 48.7405 255.282 47.762 256.226 46.9877C257.183 46.1993 258.422 45.8051 259.942 45.8051C262.11 45.8051 263.87 46.4598 265.222 47.7691L263.807 49.6063C262.737 48.5363 261.378 48.0013 259.731 48.0013C258.999 48.0013 258.415 48.1632 257.978 48.4871C257.556 48.7968 257.345 49.2191 257.345 49.7541C257.345 50.1061 257.493 50.4017 257.788 50.6411C258.098 50.8804 258.492 51.0775 258.971 51.2324C259.449 51.3731 259.977 51.5139 260.555 51.6547C261.146 51.7955 261.73 51.9715 262.307 52.1827C262.899 52.3798 263.434 52.6261 263.912 52.9218C264.391 53.2174 264.778 53.6257 265.074 54.1466C265.384 54.6675 265.538 55.287 265.538 56.005C265.538 57.272 265.081 58.3138 264.166 59.1304C263.251 59.9469 261.892 60.3552 260.09 60.3552ZM271.348 60.3552C270.489 60.3552 269.835 60.13 269.384 59.6795C268.948 59.2289 268.729 58.5813 268.729 57.7366V51.8448H267.04V49.9019H268.729V47.1144H270.947V49.9019H273.016V51.8448H270.947V57.1876C270.947 57.5536 271.031 57.8492 271.2 58.0745C271.369 58.2857 271.608 58.3913 271.918 58.3913C272.369 58.3913 272.699 58.2716 272.911 58.0323L273.439 59.7006C272.974 60.137 272.277 60.3552 271.348 60.3552ZM284.321 60.1018H282.104V59.0037C281.316 59.9047 280.217 60.3552 278.81 60.3552C277.88 60.3552 277.057 60.0596 276.339 59.4683C275.621 58.8629 275.262 58.0323 275.262 56.9764C275.262 55.8923 275.614 55.0687 276.318 54.5056C277.036 53.9425 277.866 53.6609 278.81 53.6609C280.26 53.6609 281.358 54.0973 282.104 54.9702V53.4497C282.104 52.8584 281.886 52.3938 281.449 52.056C281.013 51.7181 280.436 51.5491 279.718 51.5491C278.577 51.5491 277.571 51.9785 276.698 52.8373L275.79 51.2957C276.944 50.1976 278.373 49.6485 280.077 49.6485C281.33 49.6485 282.35 49.9442 283.139 50.5355C283.927 51.1268 284.321 52.063 284.321 53.3441V60.1018ZM279.675 58.8347C280.788 58.8347 281.597 58.4828 282.104 57.7789V56.2373C281.597 55.5333 280.788 55.1814 279.675 55.1814C279.042 55.1814 278.521 55.3503 278.113 55.6882C277.704 56.0261 277.5 56.4696 277.5 57.0186C277.5 57.5677 277.704 58.0112 278.113 58.349C278.521 58.6728 279.042 58.8347 279.675 58.8347ZM290.258 57.0397C290.498 57.4199 290.864 57.7437 291.356 58.0112C291.863 58.2646 292.37 58.3913 292.877 58.3913C293.75 58.3913 294.447 58.0815 294.967 57.4621C295.502 56.8286 295.77 56.012 295.77 55.0124C295.77 54.0129 295.502 53.1963 294.967 52.5628C294.447 51.9292 293.75 51.6125 292.877 51.6125C292.37 51.6125 291.87 51.7462 291.377 52.0137C290.885 52.2812 290.512 52.6121 290.258 53.0062V57.0397ZM290.258 60.1018H288.041V46.0163H290.258V51.3168C291.089 50.2046 292.18 49.6485 293.531 49.6485C294.855 49.6485 295.939 50.1413 296.784 51.1268C297.628 52.0982 298.051 53.3934 298.051 55.0124C298.051 56.6596 297.628 57.9619 296.784 58.9192C295.939 59.8766 294.855 60.3552 293.531 60.3552C292.194 60.3552 291.103 59.8062 290.258 58.708V60.1018ZM303.373 60.1018H301.156V46.0163H303.373V60.1018ZM311.804 60.3552C310.255 60.3552 308.974 59.8625 307.96 58.877C306.961 57.8774 306.461 56.5822 306.461 54.9913C306.461 53.499 306.947 52.239 307.918 51.2112C308.904 50.1694 310.143 49.6485 311.635 49.6485C313.141 49.6485 314.352 50.1694 315.267 51.2112C316.196 52.253 316.661 53.5835 316.661 55.2025V55.7304H308.784C308.869 56.5329 309.199 57.2016 309.777 57.7366C310.354 58.2716 311.107 58.5391 312.036 58.5391C312.557 58.5391 313.078 58.4405 313.599 58.2434C314.134 58.0463 314.577 57.7718 314.929 57.4199L315.943 58.877C314.915 59.8625 313.536 60.3552 311.804 60.3552ZM314.507 54.1677C314.479 53.4638 314.218 52.8373 313.726 52.2882C313.247 51.7392 312.55 51.4647 311.635 51.4647C310.762 51.4647 310.079 51.7392 309.587 52.2882C309.094 52.8232 308.819 53.4497 308.763 54.1677H314.507ZM324.34 60.3552C322.792 60.3552 321.525 59.8554 320.539 58.8559C319.554 57.8422 319.061 56.554 319.061 54.9913C319.061 53.4427 319.554 52.1686 320.539 51.169C321.525 50.1554 322.792 49.6485 324.34 49.6485C326.044 49.6485 327.346 50.2539 328.247 51.4647L326.79 52.8162C326.227 52.0137 325.445 51.6125 324.446 51.6125C323.517 51.6125 322.771 51.9292 322.207 52.5628C321.644 53.1822 321.363 53.9917 321.363 54.9913C321.363 55.9909 321.644 56.8074 322.207 57.441C322.771 58.0745 323.517 58.3913 324.446 58.3913C325.417 58.3913 326.199 57.99 326.79 57.1876L328.247 58.5391C327.346 59.7498 326.044 60.3552 324.34 60.3552ZM335.64 60.3552C334.063 60.3552 332.796 59.8414 331.839 58.8136C330.881 57.7718 330.403 56.4977 330.403 54.9913C330.403 53.4849 330.881 52.2179 331.839 51.1901C332.796 50.1624 334.063 49.6485 335.64 49.6485C337.231 49.6485 338.505 50.1624 339.462 51.1901C340.419 52.2179 340.898 53.4849 340.898 54.9913C340.898 56.5118 340.419 57.7859 339.462 58.8136C338.505 59.8414 337.231 60.3552 335.64 60.3552ZM335.64 58.3913C336.555 58.3913 337.273 58.0675 337.794 57.4199C338.329 56.7582 338.596 55.9487 338.596 54.9913C338.596 54.0481 338.329 53.2526 337.794 52.605C337.273 51.9433 336.555 51.6125 335.64 51.6125C334.739 51.6125 334.021 51.9433 333.486 52.605C332.965 53.2526 332.704 54.0481 332.704 54.9913C332.704 55.9487 332.965 56.7582 333.486 57.4199C334.021 58.0675 334.739 58.3913 335.64 58.3913ZM345.084 48.656C344.718 48.656 344.395 48.5222 344.113 48.2548C343.846 47.9873 343.712 47.6635 343.712 47.2833C343.712 46.9032 343.846 46.5794 344.113 46.3119C344.395 46.0444 344.718 45.9107 345.084 45.9107C345.465 45.9107 345.788 46.0444 346.056 46.3119C346.323 46.5794 346.457 46.9032 346.457 47.2833C346.457 47.6635 346.323 47.9873 346.056 48.2548C345.788 48.5222 345.465 48.656 345.084 48.656ZM346.204 60.1018H343.986V49.9019H346.204V60.1018ZM359.027 60.1018H356.809V53.7243C356.809 52.3164 356.126 51.6125 354.761 51.6125C354.226 51.6125 353.726 51.7462 353.261 52.0137C352.797 52.2812 352.424 52.605 352.142 52.9851V60.1018H349.925V49.9019H352.142V51.2957C352.522 50.8452 353.029 50.458 353.663 50.1342C354.296 49.8104 354.986 49.6485 355.732 49.6485C356.816 49.6485 357.633 49.9301 358.182 50.4932C358.745 51.0564 359.027 51.8659 359.027 52.9218V60.1018Z" fill="black"/>
<defs>
<linearGradient id="paint0_linear_1012_1080" x1="37.8545" y1="2.00024" x2="37.8545" y2="61.9621" gradientUnits="userSpaceOnUse">
<stop stop-color="#74A409"/>
<stop offset="1" stop-color="#50780A"/>
</linearGradient>
<linearGradient id="paint1_linear_1012_1080" x1="37.8545" y1="2.00024" x2="37.8545" y2="61.9621" gradientUnits="userSpaceOnUse">
<stop stop-color="#74A409"/>
<stop offset="1" stop-color="#50780A"/>
</linearGradient>
</defs>
</svg>
