<svg width="200" height="200" viewBox="0 0 200 200" fill="none" xmlns="http://www.w3.org/2000/svg">
<rect width="200" height="200" fill="white"/>
<mask id="mask0_50_45" style="mask-type:alpha" maskUnits="userSpaceOnUse" x="54" y="33" width="91" height="102">
<path d="M97.5146 34.1351C98.7448 33.4318 100.255 33.4318 101.485 34.1351L142.086 57.3482C143.332 58.0605 144.1 59.3856 144.1 60.8207V107.179C144.1 108.614 143.332 109.94 142.086 110.652L101.485 133.865C100.255 134.568 98.7448 134.568 97.5146 133.865L56.9143 110.652C55.6685 109.94 54.8997 108.614 54.8997 107.179V60.8207C54.8997 59.3856 55.6685 58.0605 56.9143 57.3482L97.5146 34.1351Z" fill="#C4C4C4"/>
</mask>
<g mask="url(#mask0_50_45)">
<path d="M142.603 109L99.3019 134V84L142.603 109Z" stroke="black" stroke-width="3"/>
<path d="M142.603 59V109L99.3019 84L142.603 59Z" stroke="black" stroke-width="3"/>
<path d="M99.3019 34L142.603 59L99.3019 84V34Z" stroke="black" stroke-width="3"/>
<path d="M99.3019 84L56.0006 109V59L99.3019 84Z" stroke="black" stroke-width="3"/>
<path d="M99.3019 84V134L56.0006 109L99.3019 84Z" stroke="black" stroke-width="3"/>
<path d="M99.3019 34V84L56.0006 59L99.3019 34Z" stroke="black" stroke-width="3"/>
<path d="M124.417 98.5L99.3019 113V84L124.417 98.5Z" stroke="black" stroke-width="3"/>
<path d="M124.417 69.5V98.5L99.3019 84L124.417 69.5Z" stroke="black" stroke-width="3"/>
<path d="M99.3019 55L124.417 69.5L99.3019 84V55Z" stroke="black" stroke-width="3"/>
<path d="M99.3019 84V113L74.1871 98.5L99.3019 84Z" stroke="black" stroke-width="3"/>
<path d="M99.3019 84L74.1871 98.5V69.5L99.3019 84Z" stroke="black" stroke-width="3"/>
<path d="M99.3019 55V84L74.1871 69.5L99.3019 55Z" stroke="black" stroke-width="3"/>
</g>
<path d="M133.5 29V29C134.435 31.395 134.902 32.5925 135.649 33.583C136.153 34.2518 136.748 34.8469 137.417 35.3512C138.407 36.0979 139.605 36.5653 142 37.5V37.5V37.5C139.605 38.4347 138.407 38.9021 137.417 39.6488C136.748 40.1531 136.153 40.7482 135.649 41.417C134.902 42.4075 134.435 43.605 133.5 46V46V46C132.565 43.605 132.098 42.4075 131.351 41.417C130.847 40.7482 130.252 40.1531 129.583 39.6488C128.593 38.9021 127.395 38.4347 125 37.5V37.5V37.5C127.395 36.5653 128.593 36.0979 129.583 35.3512C130.252 34.8469 130.847 34.2518 131.351 33.583C132.098 32.5925 132.565 31.395 133.5 29V29Z" fill="black"/>
<path d="M120.5 25V25C121.126 26.6046 122.395 27.8738 124 28.5V28.5V28.5C122.395 29.1262 121.126 30.3954 120.5 32V32V32C119.874 30.3954 118.605 29.1262 117 28.5V28.5V28.5C118.605 27.8738 119.874 26.6046 120.5 25V25Z" fill="black"/>
<path d="M33.2405 169H30.9805L24.0205 159.48V169H21.6805V155.66H24.0805L30.9005 164.92V155.66H33.2405V169ZM54.5151 169H45.3751V155.66H54.5151V157.72H47.7151V161.18H54.3751V163.24H47.7151V166.94H54.5151V169ZM68.558 169H66.218V155.66H72.078C73.4247 155.66 74.4847 156.06 75.258 156.86C76.0447 157.66 76.438 158.653 76.438 159.84C76.438 161.013 76.0447 162.007 75.258 162.82C74.4847 163.62 73.4247 164.02 72.078 164.02H68.558V169ZM71.758 161.96C72.4247 161.96 72.9714 161.767 73.398 161.38C73.8247 160.993 74.038 160.48 74.038 159.84C74.038 159.2 73.8247 158.687 73.398 158.3C72.9714 157.913 72.4247 157.72 71.758 157.72H68.558V161.96H71.758ZM99.306 169H96.966V163.18H90.026V169H87.686V155.66H90.026V161.12H96.966V155.66H99.306V169ZM121.759 169H119.059L116.099 164.02H113.779V169H111.439V155.66H117.299C118.606 155.66 119.659 156.047 120.459 156.82C121.259 157.593 121.659 158.6 121.659 159.84C121.659 160.96 121.352 161.86 120.739 162.54C120.126 163.207 119.379 163.613 118.499 163.76L121.759 169ZM116.979 161.96C117.646 161.96 118.192 161.767 118.619 161.38C119.046 160.993 119.259 160.48 119.259 159.84C119.259 159.2 119.046 158.687 118.619 158.3C118.192 157.913 117.646 157.72 116.979 157.72H113.779V161.96H116.979ZM135.638 169H133.298V155.66H135.638V169ZM153.294 169H150.954V157.72H146.914V155.66H157.334V157.72H153.294V169ZM177.756 169H168.616V155.66H177.756V157.72H170.956V161.18H177.616V163.24H170.956V166.94H177.756V169Z" fill="black"/>
</svg>
