<svg width="26" height="26" viewBox="0 0 26 26" fill="none" xmlns="http://www.w3.org/2000/svg">
<path d="M25 13C25 19.6274 19.6274 25 13 25C6.37258 25 1 19.6274 1 13C1 6.37258 6.37258 1 13 1C19.6274 1 25 6.37258 25 13Z" fill="#000A16" stroke="#527B0B" stroke-width="2"/>
<mask id="mask0_590_74" style="mask-type:alpha" maskUnits="userSpaceOnUse" x="5" y="6" width="16" height="14">
<path d="M11.5862 18.9799H6.49211C6.40619 18.9799 6.33499 18.9162 6.32873 18.8305C6.27289 18.0668 6.02441 14.5624 6.02441 12.6729C6.02441 10.7927 6.27044 7.55908 6.32789 6.82968C6.33461 6.74441 6.40564 6.68061 6.49117 6.68061H9.95993C10.0506 6.68061 10.1242 6.75422 10.1242 6.84494V7.41851C10.1242 7.56023 10.2902 7.63423 10.3964 7.54035C11.1014 6.91696 12.1533 6.1432 14.3028 6.68063C16.7469 7.29171 19.191 10.0708 20.2159 11.963C21.1451 13.6784 20.26 18.0503 20.0865 18.8525C20.0703 18.9272 20.0041 18.9799 19.9276 18.9799H14.8962C14.8246 18.9799 14.7613 18.9332 14.7386 18.8653C14.2595 17.4333 13.466 16.5016 14.6182 15.1958C16.4309 13.1415 15.3277 11.3326 14.6182 10.8596C13.9086 10.3865 11.9375 9.99229 10.7549 10.7019C9.57229 11.4114 9.80882 14.0098 11.0703 14.7228C12.6873 15.6367 11.922 18.3058 11.7373 18.8731C11.716 18.9387 11.6552 18.9799 11.5862 18.9799Z" fill="url(#paint0_linear_590_74)" stroke="black" stroke-width="0.492764"/>
</mask>
<g mask="url(#mask0_590_74)">
<path d="M11.5862 18.9799H6.49211C6.40619 18.9799 6.33499 18.9162 6.32873 18.8305C6.27289 18.0668 6.02441 14.5624 6.02441 12.6729C6.02441 10.7927 6.27044 7.55908 6.32789 6.82968C6.33461 6.74441 6.40564 6.68061 6.49117 6.68061H9.95993C10.0506 6.68061 10.1242 6.75422 10.1242 6.84494V7.41851C10.1242 7.56023 10.2902 7.63423 10.3964 7.54035C11.1014 6.91696 12.1533 6.1432 14.3028 6.68063C16.7469 7.29171 19.191 10.0708 20.2159 11.963C21.1451 13.6784 20.26 18.0503 20.0865 18.8525C20.0703 18.9272 20.0041 18.9799 19.9276 18.9799H14.8962C14.8246 18.9799 14.7613 18.9332 14.7386 18.8653C14.2595 17.4333 13.466 16.5016 14.6182 15.1958C16.4309 13.1415 15.3277 11.3326 14.6182 10.8596C13.9086 10.3865 11.9375 9.99229 10.7549 10.7019C9.57229 11.4114 9.80882 14.0098 11.0703 14.7228C12.6873 15.6367 11.922 18.3058 11.7373 18.8731C11.716 18.9387 11.6552 18.9799 11.5862 18.9799Z" fill="url(#paint1_linear_590_74)" stroke="black" stroke-width="0.492764"/>
</g>
<defs>
<linearGradient id="paint0_linear_590_74" x1="13.4868" y1="6.5" x2="13.4868" y2="18.9799" gradientUnits="userSpaceOnUse">
<stop stop-color="#74A409"/>
<stop offset="1" stop-color="#50780A"/>
</linearGradient>
<linearGradient id="paint1_linear_590_74" x1="13.4868" y1="6.5" x2="13.4868" y2="18.9799" gradientUnits="userSpaceOnUse">
<stop stop-color="#74A409"/>
<stop offset="1" stop-color="#50780A"/>
</linearGradient>
</defs>
</svg>
