<svg width="226" height="194" viewBox="0 0 226 194" fill="none" xmlns="http://www.w3.org/2000/svg">
    <mask id="mask0_384_58" style="mask-type:alpha" maskUnits="userSpaceOnUse" x="0" y="0" width="226" height="194">
        <path d="M86.9612 190H10.8796C9.65031 190 8.63194 189.091 8.54222 187.865C7.72339 176.675 4 124.239 4 96.0007C4 67.8961 7.68832 19.5019 8.53043 8.81894C8.6266 7.59893 9.64251 6.69178 10.8663 6.69178H62.7526C64.0506 6.69178 65.1027 7.74489 65.1027 9.04281V17.9067C65.1027 19.9345 67.478 20.9961 68.9955 19.651C79.5038 10.3356 95.1764 -1.35972 127.381 6.69209C163.807 15.7996 200.234 57.2188 215.51 85.4203C229.392 111.05 216.1 176.472 213.561 188.189C213.329 189.259 212.384 190 211.29 190H136.153C135.128 190 134.222 189.332 133.898 188.359C126.76 166.978 114.891 153.084 132.081 133.602C159.097 102.984 142.656 76.0248 132.081 68.9745C121.505 61.9242 92.129 56.0489 74.5032 66.6244C56.8774 77.1999 60.4025 115.926 79.2034 126.552C103.364 140.208 91.8394 180.155 89.124 188.472C88.8178 189.41 87.9477 190 86.9612 190Z" fill="url(#paint0_linear_384_58)" stroke="black" stroke-width="7.05032" />
    </mask>
    <g mask="url(#mask0_384_58)">
        <path d="M86.9612 190H10.8796C9.65031 190 8.63194 189.091 8.54222 187.865C7.72339 176.675 4 124.239 4 96.0007C4 67.8961 7.68832 19.5019 8.53043 8.81894C8.6266 7.59893 9.64251 6.69178 10.8663 6.69178H62.7526C64.0506 6.69178 65.1027 7.74489 65.1027 9.04281V17.9067C65.1027 19.9345 67.478 20.9961 68.9955 19.651C79.5038 10.3356 95.1764 -1.35972 127.381 6.69209C163.807 15.7996 200.234 57.2188 215.51 85.4203C229.392 111.05 216.1 176.472 213.561 188.189C213.329 189.259 212.384 190 211.29 190H136.153C135.128 190 134.222 189.332 133.898 188.359C126.76 166.978 114.891 153.084 132.081 133.602C159.097 102.984 142.656 76.0248 132.081 68.9745C121.505 61.9242 92.129 56.0489 74.5032 66.6244C56.8774 77.1999 60.4025 115.926 79.2034 126.552C103.364 140.208 91.8394 180.155 89.124 188.472C88.8178 189.41 87.9477 190 86.9612 190Z" fill="url(#paint1_linear_384_58)" stroke="black" stroke-width="7.05032" />
        <g style="mix-blend-mode:hard-light" opacity="0.5">
            <path fill-rule="evenodd" clip-rule="evenodd" d="M101.026 15.4759L101.026 15.4757C99.0944 9.1273 97.1593 2.76881 96.1907 -3.74034L96.1929 -3.73217C96.04 -4.75291 97.4999 -5.26376 98.0639 -4.43327C103.919 4.15957 106.925 14.8327 109.511 24.9276C111.16 22.5469 115.862 22.7891 117.341 25.9016C123.638 39.1445 128.323 53.194 132.132 67.35C132.677 69.3753 133.265 71.4386 133.861 73.5297C137.094 84.8744 140.56 97.0359 138.634 108.378C138.26 110.583 134.966 111.641 133.697 109.537C128.662 101.187 126.527 91.2001 124.428 81.3816C123.605 77.5276 122.786 73.6994 121.8 70.0064C120.614 65.5586 119.395 61.1207 118.128 56.6979C117.675 59.0082 117.031 61.2656 116.144 63.4427C114.99 66.2845 110.699 65.4274 110.4 62.5034C109.197 50.6595 107.213 38.9655 104.408 27.3973C103.439 23.4046 102.233 19.4422 101.026 15.4759ZM51.0178 19.3084L50.914 20.1393C50.7853 21.1772 51.1141 22.3319 51.9959 22.9754C54.1436 24.538 56.4235 25.9283 58.7021 27.3177L58.7021 27.3177C61.2485 28.8704 63.793 30.422 66.1492 32.2119C71.2331 36.0735 73.0675 42.0901 74.868 47.9957C75.1968 49.0744 75.5246 50.1493 75.8708 51.2068C77.0484 54.8077 78.1558 58.4905 79.2696 62.1945C82.0959 71.5935 84.9632 81.1291 89.123 89.8102C90.2937 92.2484 93.7894 91.531 93.7366 88.756C93.6129 82.5863 92.2362 76.4288 90.8766 70.3476L90.8765 70.3474C90.4422 68.4048 90.0096 66.47 89.6202 64.5451C88.1695 57.3921 85.7245 50.1236 83.1889 43.2797C78.0847 29.5114 67.6246 24.0077 55.1187 17.8708C54.1577 17.3995 52.9891 17.5942 52.1309 18.1793C52.0609 18.2269 51.9837 18.275 51.9035 18.3249C51.5233 18.5614 51.0763 18.8395 51.0178 19.3084ZM-4.57525 16.2775C-2.23165 19.8823 1.16935 22.8774 4.54056 25.8463C6.55865 27.6235 8.56607 29.3913 10.3296 31.2749C15.5833 36.8843 20.3885 42.896 24.885 49.1236C28.5116 54.1455 31.9543 59.2888 35.284 64.5053C31.6615 61.016 27.9696 57.598 24.2031 54.2586C23.0203 53.2098 21.822 52.1174 20.6044 51.0073L20.6037 51.0067L20.6035 51.0065C13.0584 44.128 4.76885 36.5707 -5.17431 34.5268C-6.94962 34.1637 -8.88239 35.8783 -8.58289 37.7139C-7.81013 42.4526 -6.01863 45.5636 -1.90253 48.0548C-0.442556 48.9374 0.59397 46.9004 -0.0394199 45.7618C-0.71112 44.5596 -1.26214 43.3663 -1.68898 42.1447C5.605 45.6492 12.0057 51.4272 18.0443 56.8783C19.1449 57.8718 20.2334 58.8544 21.3131 59.8104C30.9893 68.3757 40.1915 77.4455 48.9419 86.9513L48.9495 86.9641L48.952 86.9623C51.5069 89.731 55.7403 86.829 53.7557 83.5038L53.5703 83.1933L53.5702 83.1932C45.5706 69.8003 37.5417 56.3586 28.068 43.9353C23.8994 38.4685 19.466 33.2116 14.7136 28.238C14.1323 27.63 13.5391 26.9984 12.9334 26.3535C8.44854 21.5786 3.28125 16.0772 -2.76402 14.0467C-4.14342 13.5828 -5.41393 14.9793 -4.57368 16.2701L-4.57525 16.2775ZM79.6539 103.626C74.1812 102.953 67.9532 106.107 62.4073 108.915L62.4072 108.915C60.523 109.869 58.7176 110.783 57.0472 111.494C55.5171 112.145 53.9829 112.789 52.4479 113.434C45.4238 116.386 38.3834 119.344 31.6451 122.902C25.3754 126.212 20.4534 130.526 22.9219 138.143C26.1777 148.191 24.9689 154.577 20.2033 163.921C19.3884 165.518 20.8962 167.496 22.6653 166.61C28.9501 163.464 32.4576 156.449 33.1458 149.666C33.474 146.447 33.2308 143.093 32.3862 139.97C32.2099 139.316 31.9615 138.688 31.7174 138.071C30.9644 136.167 30.2519 134.366 31.8219 132.218C32.488 131.308 34.2167 130.539 35.6026 129.923C36.1038 129.7 36.5602 129.497 36.9054 129.314C43.3502 125.923 49.9267 122.781 56.4989 119.641L56.5146 119.633L56.5216 119.63C57.777 119.03 59.0323 118.431 60.2864 117.829C61.5958 117.201 63.0862 116.571 64.6557 115.907C70.6521 113.372 77.8023 110.349 80.4144 105.077C80.7408 104.417 80.4032 103.722 79.6535 103.63L79.6539 103.626ZM214.634 195.788C215.471 198.76 216.353 201.895 214.209 204.384C213.89 204.756 213.432 204.84 212.983 204.683C209.235 203.369 207.445 197.633 205.986 192.959C205.486 191.358 205.026 189.882 204.539 188.751C201.471 181.631 198.224 174.47 194.323 167.763C194.081 167.347 193.826 166.877 193.56 166.383L193.56 166.383C192.802 164.983 191.948 163.404 191.008 162.401C190.62 161.985 190.388 161.614 190.225 161.354C189.861 160.774 189.846 160.75 189.235 162.027C188.502 163.558 188.899 166.289 189.227 168.54C189.35 169.384 189.463 170.16 189.503 170.78C189.861 176.307 189.599 181.176 187.494 186.34C186.473 188.847 182.588 190.068 180.514 188.028C174.077 181.688 168.26 174.955 162.782 167.773C162.407 167.281 162.024 166.782 161.635 166.275L161.635 166.275L161.634 166.274C156.991 160.225 151.515 153.09 149.977 145.789C149.193 142.063 154.233 140.038 156.844 142.096C161.155 145.5 164.53 150.773 167.736 155.782L167.736 155.782L167.736 155.782C169.009 157.77 170.254 159.716 171.522 161.488C174.583 165.77 177.778 169.964 181.008 174.129C180.972 172.35 180.789 170.532 180.607 168.711C180.246 165.112 179.883 161.501 180.65 158.158C182.454 150.298 190.149 147.589 195.82 153.612C202.096 160.276 206.411 171.209 209.618 179.682C211.453 184.528 212.977 189.508 214.286 194.519C214.395 194.937 214.514 195.361 214.634 195.788ZM236.561 112.333C234.019 111.009 230.659 111.549 227.556 112.047C226.387 112.235 225.256 112.417 224.218 112.491C218.335 112.913 212.412 112.73 206.524 112.547L206.524 112.547L206.332 112.541C205.975 112.53 205.617 112.52 205.26 112.509C199.908 112.35 194.567 112.192 189.375 110.712C187.707 110.236 185.896 109.591 184.211 108.761C187.127 106.685 189.62 103.857 191.649 100.594C196.114 93.4134 199.651 81.7118 189.583 77.2296C182.957 74.2794 177.08 76.7989 171.15 79.341L171.15 79.3411C169.054 80.2396 166.952 81.1409 164.807 81.8045C157.193 84.1611 152.499 78.7946 147.843 73.4711C145.852 71.1953 143.868 68.9273 141.666 67.274C140.255 66.2166 138.143 67.2678 138.305 69.0816C139.454 81.8097 150.506 91.5272 163.016 91.7594C168.666 91.8654 174.856 90.8551 180.478 89.9376L181.014 89.8501L181.497 89.7715C181.604 89.754 181.705 89.7173 181.797 89.6693C181.693 89.8162 181.575 89.9938 181.439 90.2068C181.004 90.8893 180.668 91.5885 180.333 92.286C179.909 93.1685 179.487 94.0484 178.866 94.8883C176.735 97.7688 174.506 99.2428 170.877 99.2255C164.947 99.1961 163.12 107.599 167.359 110.943C171.997 114.607 179.161 116.648 184.878 118.276L185.148 118.353C191.505 120.168 197.74 120.448 204.306 120.431C204.764 120.43 205.223 120.429 205.682 120.428C211.767 120.416 217.859 120.404 223.908 119.609C224.209 119.569 224.523 119.53 224.848 119.489C229.18 118.946 235.456 118.16 237.134 113.825C237.364 113.234 237.126 112.635 236.563 112.341L236.561 112.333ZM254.917 57.7969C266.987 42.8467 281.653 72.9394 284.417 81.7157L284.425 81.7136C285.461 84.9993 281.175 87.3779 279.061 84.5686C277.372 82.3215 275.878 79.6457 274.361 76.9292C271.918 72.555 269.417 68.0751 265.949 65.1093C261.75 61.5197 260.512 65.3572 259.365 68.9114C259.019 69.9859 258.681 71.0346 258.271 71.8442C256.787 74.7855 254.552 77.3737 251.353 78.3511C245.779 80.0532 240.939 75.992 236.643 72.3873C235.564 71.4817 234.519 70.6049 233.506 69.8556C226.726 64.8473 219.423 60.723 211.716 57.3695C208.399 55.9251 209.48 51.2535 212.795 50.7522C222.1 49.3474 229.951 53.4727 237.317 58.8994C238.629 59.8674 239.944 61.1396 241.283 62.4352C243.37 64.4541 245.515 66.53 247.805 67.6013C249.043 69.3088 250.134 68.951 251.079 66.5278C251.502 65.3404 251.892 64.1459 252.247 62.9362C252.943 61.1162 253.68 59.3279 254.917 57.7969ZM190.739 26.6452C189.76 27.2758 188.857 27.9409 187.965 28.5981C186.211 29.8904 184.498 31.1519 182.332 32.0589C179.06 33.4284 175.564 34.3831 172.137 35.3191L172.134 35.3198C171.793 35.413 171.452 35.5059 171.113 35.5992C169.708 35.985 168.263 36.3476 166.802 36.7145C160.436 38.3126 153.751 39.9909 148.649 44.0136C147.308 45.0708 147.25 47.5519 149.082 48.209C158.812 51.6888 170.125 47.744 179.36 44.3289C185.826 41.9403 196.746 37.1783 194.862 28.5242C194.44 26.5775 192.532 25.4952 190.741 26.6534L190.739 26.6452ZM89.7496 112.791C92.4609 106.734 95.1766 100.667 98.7201 95.122L98.7163 95.1296C99.2713 94.2593 100.708 94.8326 100.588 95.8293C99.3617 106.155 94.6204 116.178 89.9425 125.49C92.7497 124.778 96.137 128.048 95.2085 131.366C91.2623 145.489 85.5709 159.162 79.149 172.34C78.2301 174.225 77.3188 176.168 76.3953 178.136C71.3847 188.815 66.0133 200.264 57.1132 207.553C55.3832 208.971 52.2041 207.606 52.6286 205.185C54.3135 195.581 59.2609 186.648 64.125 177.864C66.0343 174.417 67.9308 170.992 69.6121 167.559C71.6376 163.425 73.6327 159.278 75.5812 155.111C73.7221 156.555 71.754 157.835 69.6559 158.895C66.9194 160.28 64.246 156.816 65.9404 154.415C72.81 144.692 78.9922 134.569 84.4719 124.002C86.3633 120.355 88.0556 116.575 89.7496 112.791Z" fill="black" />
        </g>
        <path d="M175.648 55.4901C169.321 47.8932 161.984 40.6655 153.087 34.9379C143.61 28.8408 132.536 24.138 119.812 21.1449C106.221 17.9472 99.3489 21.715 82.7283 23.1429C81.487 23.2503 81.3598 19.841 82.7282 19.6178C94.4787 14.9175 106.525 12.3584 119.812 14.8437C133.579 17.4199 145.307 22.2539 155.341 28.5051C165.219 34.6586 173.97 41.6709 181.04 49.9101C201.952 74.2803 189.658 78.7226 188.483 78.7226C188.408 78.7226 178.207 58.5624 175.648 55.4901Z" fill="white" />
    </g>
    <defs>
        <linearGradient id="paint0_linear_384_58" x1="115.219" y1="4" x2="115.219" y2="190" gradientUnits="userSpaceOnUse">
            <stop stop-color="#74A409" />
            <stop offset="1" stop-color="#50780A" />
        </linearGradient>
        <linearGradient id="paint1_linear_384_58" x1="115.219" y1="4" x2="115.219" y2="190" gradientUnits="userSpaceOnUse">
            <stop stop-color="#74A409" />
            <stop offset="1" stop-color="#50780A" />
        </linearGradient>
    </defs>
</svg>
    