<svg width="22" height="22" viewBox="0 0 22 22" fill="none" xmlns="http://www.w3.org/2000/svg">
<path d="M21.0833 11C21.0833 16.5689 16.5689 21.0833 11 21.0833C5.43113 21.0833 0.916667 16.5689 0.916667 11C0.916667 5.43113 5.43113 0.916667 11 0.916667C16.5689 0.916667 21.0833 5.43113 21.0833 11Z" fill="#000A16" stroke="#527B0B" stroke-width="1.83333"/>
<mask id="mask0_867_2109" style="mask-type:alpha" maskUnits="userSpaceOnUse" x="4" y="5" width="14" height="12">
<path d="M9.8038 16.0599H5.4934C5.42069 16.0599 5.36046 16.006 5.35515 15.9335C5.3079 15.2873 5.09766 12.3221 5.09766 10.7232C5.09766 9.13229 5.30583 6.39615 5.35444 5.77896C5.36013 5.70681 5.42023 5.65282 5.49261 5.65282H8.42771C8.50447 5.65282 8.56669 5.71511 8.56669 5.79187V6.2772C8.56669 6.39712 8.7072 6.45973 8.79704 6.38029C9.39359 5.85281 10.2836 5.19809 12.1024 5.65284C14.1705 6.16991 16.2386 8.52144 17.1059 10.1225C17.8921 11.574 17.1432 15.2733 16.9963 15.9521C16.9826 16.0153 16.9266 16.0599 16.8619 16.0599H12.6046C12.5439 16.0599 12.4904 16.0204 12.4712 15.9629C12.0658 14.7512 11.3944 13.9629 12.3693 12.858C13.9031 11.1197 12.9697 9.58912 12.3693 9.18885C11.7689 8.78858 10.1011 8.45502 9.10039 9.05543C8.09971 9.65584 8.29985 11.8544 9.36724 12.4578C10.7355 13.2311 10.0879 15.4895 9.93166 15.9696C9.91359 16.025 9.86214 16.0599 9.8038 16.0599Z" fill="url(#paint0_linear_867_2109)" stroke="black" stroke-width="0.416954"/>
</mask>
<g mask="url(#mask0_867_2109)">
<path d="M9.8038 16.0599H5.4934C5.42069 16.0599 5.36046 16.006 5.35515 15.9335C5.3079 15.2873 5.09766 12.3221 5.09766 10.7232C5.09766 9.13229 5.30583 6.39615 5.35444 5.77896C5.36013 5.70681 5.42023 5.65282 5.49261 5.65282H8.42771C8.50447 5.65282 8.56669 5.71511 8.56669 5.79187V6.2772C8.56669 6.39712 8.7072 6.45973 8.79704 6.38029C9.39359 5.85281 10.2836 5.19809 12.1024 5.65284C14.1705 6.16991 16.2386 8.52144 17.1059 10.1225C17.8921 11.574 17.1432 15.2733 16.9963 15.9521C16.9826 16.0153 16.9266 16.0599 16.8619 16.0599H12.6046C12.5439 16.0599 12.4904 16.0204 12.4712 15.9629C12.0658 14.7512 11.3944 13.9629 12.3693 12.858C13.9031 11.1197 12.9697 9.58912 12.3693 9.18885C11.7689 8.78858 10.1011 8.45502 9.10039 9.05543C8.09971 9.65584 8.29985 11.8544 9.36724 12.4578C10.7355 13.2311 10.0879 15.4895 9.93166 15.9696C9.91359 16.025 9.86214 16.0599 9.8038 16.0599Z" fill="url(#paint1_linear_867_2109)" stroke="black" stroke-width="0.416954"/>
</g>
<defs>
<linearGradient id="paint0_linear_867_2109" x1="11.412" y1="5.5" x2="11.412" y2="16.0599" gradientUnits="userSpaceOnUse">
<stop stop-color="#74A409"/>
<stop offset="1" stop-color="#50780A"/>
</linearGradient>
<linearGradient id="paint1_linear_867_2109" x1="11.412" y1="5.5" x2="11.412" y2="16.0599" gradientUnits="userSpaceOnUse">
<stop stop-color="#74A409"/>
<stop offset="1" stop-color="#50780A"/>
</linearGradient>
</defs>
</svg>
