<svg width="18" height="18" viewBox="0 0 18 18" fill="none" xmlns="http://www.w3.org/2000/svg">
<path d="M17 9C17 13.4183 13.4183 17 9 17C4.58172 17 1 13.4183 1 9C1 4.58172 4.58172 1 9 1C13.4183 1 17 4.58172 17 9Z" fill="#000A16" stroke="#527B0B" stroke-width="2"/>
<mask id="mask0_872_5631" style="mask-type:alpha" maskUnits="userSpaceOnUse" x="4" y="5" width="10" height="8">
<path d="M8.19633 12.4691H5.24594C5.18646 12.4691 5.13707 12.4235 5.13275 12.3642C5.09776 11.884 4.95605 9.87186 4.95605 8.78066C4.95605 7.69497 5.09633 5.83765 5.13221 5.38031C5.13684 5.32128 5.18608 5.27628 5.2453 5.27628H7.23994C7.30275 5.27628 7.35366 5.32721 7.35366 5.39001V5.66852C7.35366 5.76664 7.46839 5.81768 7.54233 5.75318C7.95449 5.39361 8.56989 4.96939 9.79737 5.27629C11.2267 5.63366 12.6561 7.2589 13.2555 8.3655C13.7942 9.3601 13.29 11.8818 13.1824 12.3821C13.1713 12.4338 13.1257 12.4691 13.0728 12.4691H10.1574C10.1077 12.4691 10.064 12.4369 10.0481 12.3899C9.76756 11.5593 9.31127 11.016 9.9818 10.2561C11.0419 9.05468 10.3968 7.99683 9.9818 7.72018C9.56683 7.44353 8.41414 7.213 7.72252 7.62797C7.0309 8.04293 7.16923 9.56249 7.90695 9.97946C8.84153 10.5077 8.41534 12.0385 8.30097 12.3945C8.28637 12.4399 8.24407 12.4691 8.19633 12.4691Z" fill="white" stroke="black" stroke-width="0.341144"/>
</mask>
<g mask="url(#mask0_872_5631)">
<path d="M8.19633 12.4691H5.24594C5.18646 12.4691 5.13707 12.4235 5.13275 12.3642C5.09776 11.884 4.95605 9.87186 4.95605 8.78066C4.95605 7.69497 5.09633 5.83765 5.13221 5.38031C5.13684 5.32128 5.18608 5.27628 5.2453 5.27628H7.23994C7.30275 5.27628 7.35366 5.32721 7.35366 5.39001V5.66852C7.35366 5.76664 7.46839 5.81768 7.54233 5.75318C7.95449 5.39361 8.56989 4.96939 9.79737 5.27629C11.2267 5.63366 12.6561 7.2589 13.2555 8.3655C13.7942 9.3601 13.29 11.8818 13.1824 12.3821C13.1713 12.4338 13.1257 12.4691 13.0728 12.4691H10.1574C10.1077 12.4691 10.064 12.4369 10.0481 12.3899C9.76756 11.5593 9.31127 11.016 9.9818 10.2561C11.0419 9.05468 10.3968 7.99683 9.9818 7.72018C9.56683 7.44353 8.41414 7.213 7.72252 7.62797C7.0309 8.04293 7.16923 9.56249 7.90695 9.97946C8.84153 10.5077 8.41534 12.0385 8.30097 12.3945C8.28637 12.4399 8.24407 12.4691 8.19633 12.4691Z" fill="white" stroke="black" stroke-width="0.341144"/>
</g>
</svg>
