<svg width="15" height="16" viewBox="0 0 15 16" fill="none" xmlns="http://www.w3.org/2000/svg">
<path opacity="0.3" d="M6.57227 4.25781C6.57227 2.08984 5.37109 0.703125 3.52539 0.703125C1.66992 0.703125 0.46875 2.08984 0.46875 4.25781C0.46875 6.42578 1.66992 7.8125 3.52539 7.8125C5.37109 7.8125 6.57227 6.42578 6.57227 4.25781ZM3.52539 6.43555C2.74414 6.43555 2.25586 5.60547 2.25586 4.24805C2.25586 2.90039 2.74414 2.07031 3.52539 2.07031C4.29688 2.07031 4.78516 2.90039 4.78516 4.24805C4.78516 5.60547 4.29688 6.43555 3.52539 6.43555ZM3.4375 15L8.42773 8.17383L13.7305 0.908203H11.8066L6.95312 7.54883L1.50391 15H3.4375ZM14.7656 11.6113C14.7656 9.43359 13.5742 8.04688 11.7188 8.04688C9.86328 8.04688 8.67188 9.43359 8.67188 11.6113C8.67188 13.7793 9.86328 15.166 11.7188 15.166C13.5742 15.166 14.7656 13.7793 14.7656 11.6113ZM11.7188 13.7793C10.9375 13.7793 10.459 12.959 10.459 11.6016C10.459 10.2441 10.9375 9.42383 11.7188 9.42383C12.5 9.42383 12.9785 10.2441 12.9785 11.6016C12.9785 12.959 12.5 13.7793 11.7188 13.7793Z" fill="black"/>
</svg>
