<svg width="18" height="18" viewBox="0 0 18 18" fill="none" xmlns="http://www.w3.org/2000/svg">
<path d="M17 9C17 13.4183 13.4183 17 9 17C4.58172 17 1 13.4183 1 9C1 4.58172 4.58172 1 9 1C13.4183 1 17 4.58172 17 9Z" fill="#000A16" stroke="url(#paint0_linear_936_335)" stroke-width="2"/>
<path d="M9.00649 3.4397L13.7486 11.6105H4.26318L9.00649 3.4397ZM9.00649 6.13908L6.60256 10.2667H11.4086L9.00649 6.13908Z" fill="#0B76FF"/>
<g style="mix-blend-mode:lighten">
<path d="M9.00474 14.3213L4.26267 6.15053L13.748 6.15053L9.00474 14.3213ZM9.00474 11.6225L11.4087 7.49432L6.60267 7.49432L9.00474 11.6219V11.6225Z" fill="#00E3C2"/>
</g>
<path d="M6.28019 4.17083L14.4723 8.87587L6.25774 13.6186L6.28019 4.17083ZM7.62988 6.50856L7.61181 11.2851L11.7739 8.88212L7.62988 6.50856Z" fill="#25C0FF"/>
<g style="mix-blend-mode:lighten">
<path d="M11.7198 13.5958L3.52768 8.89073L11.7423 4.14804L11.7198 13.5958ZM10.3704 11.2586L10.3882 6.48149L6.22607 8.88449L10.3701 11.258L10.3704 11.2586Z" fill="#FF51FF"/>
</g>
<defs>
<linearGradient id="paint0_linear_936_335" x1="9" y1="0" x2="9" y2="18" gradientUnits="userSpaceOnUse">
<stop stop-color="#A17DFF"/>
<stop offset="1" stop-color="#6F7FFF"/>
</linearGradient>
</defs>
</svg>
