<svg width="22" height="22" viewBox="0 0 22 22" fill="none" xmlns="http://www.w3.org/2000/svg">
    <path d="M21 11C21 16.5228 16.5228 21 11 21C5.47715 21 1 16.5228 1 11C1 5.47715 5.47715 1 11 1C16.5228 1 21 5.47715 21 11Z" fill="url(#paint0_radial_12_684)" stroke="#00F6D2" strokeWidth="2" />
    <path fillRule="evenodd" clipRule="evenodd" d="M11.0253 5.07715L11.0132 5.09779L11.0011 5.07715V5.11842L8.36877 9.61179L5.0769 8.20203V11.3263L7.39146 11.2801L5.0769 15.231H11H11.0264H16.9495L14.6252 11.2635L17.7692 11.3263V8.20203L13.822 9.89243L11.0253 5.11842V5.07715ZM12.3097 10.5401L11.0132 8.28998L9.87888 10.2585L10.4859 10.5185L11.0003 9.60441V9.57782L11.0078 9.59111L11.0153 9.57784V9.60438L11.691 10.8051L12.3097 10.5401ZM10.0876 11.2262L9.13331 12.9219L11.0149 12.9182L11.0153 12.9182L12.8823 12.9219L11.9186 11.2094L12.7045 11.2251L14.036 13.5359L11.0264 13.5348H11L7.99039 13.5359L9.31236 11.2417L10.0876 11.2262Z" fill="white" />
    <defs>
        <radialGradient id="paint0_radial_12_684" cx="0" cy="0" r="1" gradientUnits="userSpaceOnUse" gradientTransform="translate(11 11) scale(11)">
            <stop stop-color="#008471" />
            <stop offset="1" stop-color="#103051" />
        </radialGradient>
    </defs>
</svg>