<svg width="18" height="18" viewBox="0 0 18 18" fill="none" xmlns="http://www.w3.org/2000/svg">
<path d="M17 9C17 13.4183 13.4183 17 9 17C4.58172 17 1 13.4183 1 9C1 4.58172 4.58172 1 9 1C13.4183 1 17 4.58172 17 9Z" fill="url(#paint0_radial_936_324)" stroke="#00F6D2" stroke-width="2"/>
<path fill-rule="evenodd" clip-rule="evenodd" d="M9.02066 4.15381L9.01077 4.17069L9.00088 4.15381V4.18758L6.84715 7.86397L4.15381 6.71053V9.26674L6.04754 9.22891L4.15381 12.4615H8.99995H9.02159H13.8677L11.9661 9.21536L14.5384 9.26674V6.71053L11.3089 8.09359L9.02066 4.18758V4.15381ZM10.0716 8.62348L9.01077 6.78249L8.0827 8.39311L8.57937 8.60581L9.00026 7.85793V7.83617L9.00638 7.84705L9.01249 7.8362V7.85791L9.56535 8.84028L10.0716 8.62348ZM8.25349 9.18485L7.47268 10.5723L9.01223 10.5693L9.01249 10.5692L10.5401 10.5722L9.75154 9.17112L10.3945 9.18396L11.484 11.0746L9.02159 11.0737V11.0737L9.01077 11.0737L8.99995 11.0737V11.0737L6.53757 11.0746L7.61919 9.19752L8.25349 9.18485Z" fill="white"/>
<defs>
<radialGradient id="paint0_radial_936_324" cx="0" cy="0" r="1" gradientUnits="userSpaceOnUse" gradientTransform="translate(9 9) scale(9)">
<stop stop-color="#008471"/>
<stop offset="1" stop-color="#103051"/>
</radialGradient>
</defs>
</svg>
