<svg width="120" height="120" viewBox="0 0 120 120" fill="none" xmlns="http://www.w3.org/2000/svg">
    <path d="M107.5 60C107.5 86.2335 86.2335 107.5 60 107.5C33.7665 107.5 12.5 86.2335 12.5 60C12.5 33.7665 33.7665 12.5 60 12.5C86.2335 12.5 107.5 33.7665 107.5 60Z" fill="#000A16" stroke="#527B0B" stroke-width="5"/>
    <mask id="mask0_397_32" style="mask-type:alpha" maskUnits="userSpaceOnUse" x="29" y="31" width="64" height="56">
    <path d="M53.9742 85.254H32.4447C32.1143 85.254 31.8405 85.0099 31.8164 84.6803C31.5897 81.5843 30.532 66.7142 30.532 58.7178C30.532 50.7573 31.5802 37.0305 31.8133 34.0763C31.8392 33.7484 32.1122 33.5057 32.4411 33.5057H47.1497C47.4986 33.5057 47.7814 33.7893 47.7814 34.1382V36.7426C47.7814 37.2877 48.4199 37.5733 48.8274 37.2112C51.7942 34.574 56.217 31.2192 65.3626 33.5058C75.6459 36.0769 85.9292 47.7696 90.2415 55.731C94.1719 62.9871 90.3867 81.5409 89.6853 84.7709C89.6229 85.0584 89.3697 85.254 89.0755 85.254H67.8158C67.5402 85.254 67.2968 85.0743 67.2097 84.8128C65.1955 78.7644 61.8308 74.8393 66.6894 69.3329C74.3161 60.6893 69.6749 53.0786 66.6894 51.0883C63.704 49.098 55.411 47.4394 50.4352 50.4248C45.4594 53.4103 46.4545 64.3426 51.762 67.3425C58.6025 71.2089 55.3102 82.5405 54.556 84.843C54.4735 85.095 54.2394 85.254 53.9742 85.254Z" fill="url(#paint0_linear_397_32)" stroke="black" stroke-width="1.89525"/>
    </mask>
    <g mask="url(#mask0_397_32)">
    <path d="M53.9742 85.254H32.4447C32.1143 85.254 31.8405 85.0099 31.8164 84.6803C31.5897 81.5843 30.532 66.7142 30.532 58.7178C30.532 50.7573 31.5802 37.0305 31.8133 34.0763C31.8392 33.7484 32.1122 33.5057 32.4411 33.5057H47.1497C47.4986 33.5057 47.7814 33.7893 47.7814 34.1382V36.7426C47.7814 37.2877 48.4199 37.5733 48.8274 37.2112C51.7942 34.574 56.217 31.2192 65.3626 33.5058C75.6459 36.0769 85.9292 47.7696 90.2415 55.731C94.1719 62.9871 90.3867 81.5409 89.6853 84.7709C89.6229 85.0584 89.3697 85.254 89.0755 85.254H67.8158C67.5402 85.254 67.2968 85.0743 67.2097 84.8128C65.1955 78.7644 61.8308 74.8393 66.6894 69.3329C74.3161 60.6893 69.6749 53.0786 66.6894 51.0883C63.704 49.098 55.411 47.4394 50.4352 50.4248C45.4594 53.4103 46.4545 64.3426 51.762 67.3425C58.6025 71.2089 55.3102 82.5405 54.556 84.843C54.4735 85.095 54.2394 85.254 53.9742 85.254Z" fill="url(#paint1_linear_397_32)" stroke="black" stroke-width="1.89525"/>
    <g style="mix-blend-mode:hard-light" opacity="0.5">
    <path fill-rule="evenodd" clip-rule="evenodd" d="M57.9227 35.9856C57.3773 34.1934 56.831 32.3983 56.5576 30.5608L56.5582 30.5631C56.515 30.2749 56.9271 30.1307 57.0864 30.3652C58.7393 32.7909 59.5877 35.804 60.3179 38.6538C60.7835 37.9817 62.1108 38.0501 62.5282 38.9288C64.3059 42.6673 65.6286 46.6334 66.704 50.6297C66.8578 51.2015 67.0238 51.7839 67.192 52.3743C68.1048 55.5769 69.0832 59.0101 68.5394 62.2119C68.4339 62.8345 67.5039 63.1331 67.1457 62.5391C65.7242 60.1819 65.1216 57.3627 64.5291 54.5909L64.5291 54.5908L64.5291 54.5908C64.2966 53.5028 64.0656 52.4222 63.7872 51.3796C63.4522 50.124 63.1083 48.8712 62.7506 47.6226C62.6226 48.2748 62.4407 48.9121 62.1905 49.5267C61.8647 50.3289 60.6533 50.087 60.5689 49.2615C60.2293 45.918 59.6693 42.6167 58.8772 39.351C58.6039 38.2239 58.2635 37.1053 57.9227 35.9856L57.9227 35.9856ZM43.8052 37.0675L43.7759 37.302C43.7396 37.595 43.8324 37.921 44.0814 38.1027C44.6876 38.5438 45.3312 38.9362 45.9744 39.3284L45.9744 39.3284L45.9744 39.3285L45.9744 39.3285L45.9745 39.3285L45.9745 39.3285L45.9745 39.3285L45.9745 39.3285C46.6934 39.7668 47.4117 40.2049 48.0768 40.7101C49.5121 41.8003 50.0299 43.4988 50.5382 45.1659L50.5382 45.166L50.5382 45.1661L50.5383 45.1662L50.5383 45.1663L50.5383 45.1664L50.5383 45.1665L50.5384 45.1666C50.6311 45.4709 50.7236 45.7741 50.8213 46.0724C51.1537 47.089 51.4663 48.1286 51.7808 49.1743L51.7808 49.1743L51.7808 49.1744L51.7808 49.1744C52.5786 51.8277 53.3881 54.5196 54.5624 56.9703C54.8929 57.6586 55.8797 57.456 55.8648 56.6727C55.8299 54.931 55.4413 53.1927 55.0575 51.476L55.0574 51.4759L55.0574 51.4759L55.0574 51.4758L55.0574 51.4758L55.0574 51.4757L55.0574 51.4757C54.9348 50.9274 54.8127 50.3812 54.7028 49.8379C54.2932 47.8186 53.603 45.7667 52.8872 43.8346C51.4463 39.9478 48.4934 38.3941 44.9629 36.6616C44.6916 36.5286 44.3617 36.5836 44.1195 36.7487C44.0997 36.7622 44.0779 36.7757 44.0553 36.7898C43.9479 36.8566 43.8218 36.9351 43.8052 37.0675ZM30.6845 38.9131L30.6845 38.9131C31.2543 39.4148 31.821 39.9139 32.3188 40.4456C33.8019 42.0292 35.1584 43.7263 36.4278 45.4844C37.4516 46.902 38.4235 48.354 39.3635 49.8266C38.3408 48.8416 37.2986 47.8767 36.2353 46.934C35.9013 46.6378 35.563 46.3294 35.2191 46.0159C33.0892 44.0741 30.749 41.9406 27.942 41.3636C27.4408 41.2611 26.8952 41.7452 26.9798 42.2634C27.1979 43.6011 27.7037 44.4794 28.8657 45.1826C29.2778 45.4318 29.5704 44.8567 29.3916 44.5353C29.202 44.1959 29.0464 43.8591 28.9259 43.5142C30.985 44.5035 32.792 46.1347 34.4967 47.6735C34.8074 47.954 35.1147 48.2314 35.4195 48.5013C38.1511 50.9193 40.7489 53.4797 43.2192 56.1632L43.2213 56.1668L43.222 56.1663C43.9432 56.9479 45.1383 56.1287 44.5781 55.1899L44.5257 55.1022C42.2674 51.3214 40.0008 47.5268 37.3264 44.0197C36.1496 42.4764 34.898 40.9924 33.5564 39.5883C33.3923 39.4167 33.2249 39.2384 33.0539 39.0563C31.7878 37.7084 30.329 36.1553 28.6224 35.5821C28.233 35.4511 27.8744 35.8454 28.1116 36.2098L28.1111 36.2118C28.7727 37.2295 29.7328 38.075 30.6845 38.9131ZM51.8892 60.8705C50.3442 60.6805 48.586 61.5708 47.0204 62.3636L47.0204 62.3636C46.4885 62.6329 45.9788 62.891 45.5073 63.0917C45.0759 63.2751 44.6434 63.4568 44.2106 63.6386L44.2088 63.6394L44.2088 63.6394C42.2259 64.4726 40.2384 65.3077 38.3362 66.3122C36.5662 67.2465 35.1768 68.4643 35.8736 70.6147C36.7927 73.4513 36.4515 75.2542 35.1062 77.892C34.8761 78.3427 35.3018 78.9012 35.8012 78.6509C37.5754 77.763 38.5656 75.7826 38.7599 73.8677C38.8525 72.9591 38.7838 72.012 38.5454 71.1305C38.4956 70.9459 38.4255 70.7686 38.3566 70.5944L38.3566 70.5943C38.144 70.0569 37.9429 69.5484 38.3861 68.9421C38.5742 68.6852 39.0621 68.4681 39.4534 68.2941L39.4536 68.294C39.595 68.2311 39.7238 68.1738 39.8212 68.1223C41.6404 67.165 43.4968 66.2781 45.352 65.3918L45.3522 65.3917C45.7089 65.2213 46.0654 65.0509 46.4217 64.8801C46.7913 64.7027 47.2121 64.5248 47.6551 64.3375C49.3479 63.6217 51.3665 62.7683 52.1039 61.28C52.196 61.0937 52.1007 60.8976 51.8891 60.8716L51.8892 60.8705ZM89.9945 86.8878C90.2307 87.727 90.4797 88.6119 89.8744 89.3147C89.7844 89.4197 89.6552 89.4433 89.5284 89.3989C88.4703 89.0279 87.9649 87.4088 87.5531 86.0892C87.412 85.6374 87.282 85.2207 87.1444 84.9013C86.2785 82.8914 85.3617 80.8697 84.2606 78.9764C84.1923 78.8591 84.1204 78.7262 84.0451 78.587L84.0451 78.5869C83.8313 78.1916 83.5901 77.7457 83.3249 77.4627C83.2153 77.3453 83.1496 77.2404 83.1036 77.167C83.001 77.0034 82.9968 76.9966 82.8244 77.3571C82.6172 77.7894 82.7295 78.5602 82.8221 79.1958C82.8568 79.4339 82.8887 79.653 82.9 79.8282C83.001 81.3884 82.9269 82.763 82.3327 84.2206C82.0445 84.9285 80.9478 85.2732 80.3623 84.6972C78.5451 82.9073 76.9029 81.0066 75.3565 78.9791C75.2523 78.8426 75.1458 78.7038 75.0377 78.5629L75.0338 78.5578L75.0326 78.5563L75.0326 78.5562C73.7218 76.8485 72.1757 74.8341 71.7415 72.773C71.5202 71.7211 72.9431 71.1496 73.68 71.7306C74.8972 72.6914 75.8499 74.18 76.755 75.5941L76.755 75.5941C77.1142 76.1553 77.4659 76.7048 77.8237 77.2049C78.6879 78.4137 79.5898 79.5976 80.5017 80.7735C80.4915 80.2712 80.44 79.7581 80.3885 79.2441C80.2865 78.2279 80.1842 77.2086 80.4007 76.2649C80.9098 74.046 83.0822 73.2812 84.6832 74.9814C86.4548 76.8629 87.673 79.9493 88.5784 82.3413C89.0963 83.7092 89.5266 85.1151 89.8962 86.5298C89.927 86.6477 89.9606 86.7673 89.9945 86.8878ZM96.1844 63.3284C95.467 62.9545 94.5183 63.107 93.6423 63.2478C93.3124 63.3008 92.9929 63.3522 92.6999 63.3731C91.0393 63.4922 89.3672 63.4404 87.705 63.3889L87.6507 63.3872L87.3483 63.3781C85.8374 63.3334 84.3295 63.2887 82.8639 62.8709C82.3929 62.7363 81.8817 62.5543 81.406 62.3201C82.2293 61.7341 82.9329 60.9357 83.5057 60.0145C84.7661 57.9874 85.7647 54.684 82.9225 53.4186C81.0519 52.5858 79.3928 53.2971 77.7188 54.0147C77.1271 54.2684 76.5336 54.5228 75.9282 54.7102C73.7788 55.3754 72.4537 53.8605 71.1391 52.3576C70.5771 51.7152 70.0171 51.0749 69.3954 50.6082C68.9971 50.3097 68.401 50.6064 68.4465 51.1185C68.771 54.7116 71.8909 57.4549 75.4227 57.5204C77.0177 57.5504 78.7651 57.2652 80.3521 57.0061L80.6398 56.9592C80.6701 56.9543 80.6985 56.944 80.7244 56.9304C80.6952 56.9719 80.6617 57.022 80.6234 57.0822C80.5005 57.2748 80.4058 57.4721 80.3112 57.669L80.3112 57.669L80.3112 57.6691L80.3112 57.6691L80.3112 57.6691C80.1915 57.9183 80.0723 58.1666 79.897 58.4037C79.2953 59.2169 78.6661 59.633 77.6418 59.6282C75.9677 59.6198 75.452 61.9921 76.6487 62.936C77.9578 63.9703 79.9803 64.5464 81.5943 65.0062L81.6706 65.0279C83.4649 65.5402 85.2253 65.6192 87.0787 65.6145L87.4672 65.6137C89.185 65.6103 90.9049 65.6069 92.6125 65.3824L92.7361 65.3665L92.8779 65.3486C94.1009 65.1954 95.8724 64.9734 96.3462 63.7497C96.4113 63.5827 96.3438 63.4136 96.185 63.3307L96.1844 63.3284ZM101.367 47.9329C104.774 43.7124 108.914 52.2077 109.694 54.6852L109.697 54.6846C109.989 55.6122 108.779 56.2837 108.182 55.4906C107.706 54.8563 107.284 54.1009 106.856 53.334C106.166 52.0992 105.46 50.8345 104.481 49.9972C103.295 48.9839 102.946 50.0672 102.622 51.0706C102.524 51.3739 102.429 51.6699 102.313 51.8985C101.894 52.7288 101.264 53.4595 100.36 53.7354C98.7868 54.2159 97.4205 53.0694 96.2078 52.0518C95.9031 51.7962 95.6081 51.5486 95.322 51.3371C93.4082 49.9232 91.3464 48.759 89.1706 47.8123C88.2344 47.4045 88.5396 46.0857 89.4753 45.9442C92.102 45.5476 94.3185 46.7122 96.3978 48.2441C96.7684 48.5174 97.1396 48.8766 97.5176 49.2423C98.1066 49.8123 98.7123 50.3983 99.3586 50.7007C99.7081 51.1828 100.016 51.0817 100.283 50.3977C100.402 50.0625 100.512 49.7253 100.613 49.3837C100.809 48.87 101.017 48.3651 101.367 47.9329ZM82.4657 39.69L82.4656 39.69C81.9704 40.0548 81.4869 40.4109 80.8754 40.667C79.9518 41.0536 78.9648 41.3231 77.9972 41.5874L77.7082 41.6664C77.3117 41.7753 76.9038 41.8777 76.4913 41.9813C74.6942 42.4324 72.8069 42.9062 71.3666 44.0418C70.988 44.3403 70.9716 45.0407 71.4889 45.2262C74.2356 46.2085 77.4293 45.0949 80.0365 44.1308C81.8617 43.4565 84.9444 42.1122 84.4128 39.6691C84.2935 39.1196 83.755 38.814 83.2494 39.141L83.2488 39.1387C82.9724 39.3167 82.7175 39.5044 82.4657 39.69ZM54.7393 63.4575C55.5047 61.7477 56.2713 60.0351 57.2717 58.4697L57.2706 58.4718C57.4273 58.2261 57.8328 58.388 57.7989 58.6693C57.4528 61.5842 56.1143 64.4139 54.7938 67.0427C55.5862 66.8415 56.5425 67.7647 56.2803 68.7014C55.1663 72.6883 53.5596 76.5482 51.7467 80.2684C51.4873 80.8007 51.2301 81.349 50.9693 81.9047C49.5548 84.9195 48.0385 88.1514 45.5259 90.2092C45.0376 90.6094 44.1401 90.224 44.26 89.5408C44.7356 86.8296 46.1323 84.3075 47.5054 81.828C48.0444 80.8547 48.5798 79.8879 49.0544 78.9188C49.6262 77.7518 50.1895 76.5811 50.7395 75.4046C50.2147 75.8124 49.6591 76.1736 49.0668 76.4728C48.2943 76.864 47.5396 75.8861 48.0179 75.2081C49.9572 72.4633 51.7025 69.6057 53.2494 66.6226C53.7833 65.593 54.2611 64.5258 54.7393 63.4575Z" fill="black"/>
    </g>
    <path d="M78.9887 47.2815C77.2025 45.1369 75.131 43.0965 72.6196 41.4795C69.9441 39.7583 66.8181 38.4307 63.226 37.5858C59.3892 36.683 57.4491 37.7467 52.7571 38.1498C52.4067 38.1801 52.3708 37.2177 52.7571 37.1546C56.0743 35.8278 59.4751 35.1053 63.226 35.8069C67.1124 36.5342 70.4231 37.8988 73.2557 39.6636C76.0445 41.4007 78.5148 43.3803 80.5107 45.7062C86.4142 52.586 82.9437 53.84 82.612 53.8401C82.5908 53.8401 79.7109 48.1488 78.9887 47.2815Z" fill="white"/>
    </g>
    <defs>
    <linearGradient id="paint0_linear_397_32" x1="61.9295" y1="32.7458" x2="61.9295" y2="85.254" gradientUnits="userSpaceOnUse">
    <stop stop-color="#74A409"/>
    <stop offset="1" stop-color="#50780A"/>
    </linearGradient>
    <linearGradient id="paint1_linear_397_32" x1="61.9295" y1="32.7458" x2="61.9295" y2="85.254" gradientUnits="userSpaceOnUse">
    <stop stop-color="#74A409"/>
    <stop offset="1" stop-color="#50780A"/>
    </linearGradient>
    </defs>
    </svg>
    