<svg width="120" height="120" viewBox="0 0 120 120" fill="none" xmlns="http://www.w3.org/2000/svg">
    <path d="M107.5 60C107.5 86.2335 86.2335 107.5 60 107.5C33.7665 107.5 12.5 86.2335 12.5 60C12.5 33.7665 33.7665 12.5 60 12.5C86.2335 12.5 107.5 33.7665 107.5 60Z" fill="#000A16" stroke="#527B0B" stroke-width="5"/>
    <mask id="mask0_397_115" style="mask-type:alpha" maskUnits="userSpaceOnUse" x="29" y="31" width="64" height="56">
    <path d="M53.9742 85.254H32.4447C32.1143 85.254 31.8405 85.0099 31.8164 84.6803C31.5897 81.5843 30.532 66.7142 30.532 58.7178C30.532 50.7573 31.5802 37.0305 31.8133 34.0763C31.8392 33.7484 32.1122 33.5057 32.4411 33.5057H47.1497C47.4986 33.5057 47.7814 33.7893 47.7814 34.1382V36.7426C47.7814 37.2877 48.4199 37.5733 48.8274 37.2112C51.7942 34.574 56.217 31.2192 65.3626 33.5058C75.6459 36.0769 85.9292 47.7696 90.2415 55.731C94.1719 62.9871 90.3867 81.5409 89.6853 84.7709C89.6229 85.0584 89.3697 85.254 89.0755 85.254H67.8158C67.5402 85.254 67.2968 85.0743 67.2097 84.8128C65.1955 78.7644 61.8308 74.8393 66.6894 69.3329C74.3161 60.6893 69.6749 53.0786 66.6894 51.0883C63.704 49.098 55.411 47.4394 50.4352 50.4248C45.4594 53.4103 46.4545 64.3426 51.762 67.3425C58.6025 71.2089 55.3102 82.5405 54.556 84.843C54.4735 85.095 54.2394 85.254 53.9742 85.254Z" fill="url(#paint0_linear_397_115)" stroke="black" stroke-width="1.89525"/>
    </mask>
    <g mask="url(#mask0_397_115)">
    <path d="M53.9742 85.254H32.4447C32.1143 85.254 31.8405 85.0099 31.8164 84.6803C31.5897 81.5843 30.532 66.7142 30.532 58.7178C30.532 50.7573 31.5802 37.0305 31.8133 34.0763C31.8392 33.7484 32.1122 33.5057 32.4411 33.5057H47.1497C47.4986 33.5057 47.7814 33.7893 47.7814 34.1382V36.7426C47.7814 37.2877 48.4199 37.5733 48.8274 37.2112C51.7942 34.574 56.217 31.2192 65.3626 33.5058C75.6459 36.0769 85.9292 47.7696 90.2415 55.731C94.1719 62.9871 90.3867 81.5409 89.6853 84.7709C89.6229 85.0584 89.3697 85.254 89.0755 85.254H67.8158C67.5402 85.254 67.2968 85.0743 67.2097 84.8128C65.1955 78.7644 61.8308 74.8393 66.6894 69.3329C74.3161 60.6893 69.6749 53.0786 66.6894 51.0883C63.704 49.098 55.411 47.4394 50.4352 50.4248C45.4594 53.4103 46.4545 64.3426 51.762 67.3425C58.6025 71.2089 55.3102 82.5405 54.556 84.843C54.4735 85.095 54.2394 85.254 53.9742 85.254Z" fill="url(#paint1_linear_397_115)" stroke="black" stroke-width="1.89525"/>
    </g>
    <defs>
    <linearGradient id="paint0_linear_397_115" x1="61.9295" y1="32.7458" x2="61.9295" y2="85.254" gradientUnits="userSpaceOnUse">
    <stop stop-color="#74A409"/>
    <stop offset="1" stop-color="#50780A"/>
    </linearGradient>
    <linearGradient id="paint1_linear_397_115" x1="61.9295" y1="32.7458" x2="61.9295" y2="85.254" gradientUnits="userSpaceOnUse">
    <stop stop-color="#74A409"/>
    <stop offset="1" stop-color="#50780A"/>
    </linearGradient>
    </defs>
    </svg>
    